<?xml version="1.0" standalone="no"?>
<!DOCTYPE svg PUBLIC "-//W3C//DTD SVG 1.1//EN" "http://www.w3.org/Graphics/SVG/1.1/DTD/svg11.dtd" >
<svg xmlns="http://www.w3.org/2000/svg">
	<metadata></metadata>
	<defs>
		<font id="rolandbecker-lightregular" horiz-adv-x="1093">
			<font-face units-per-em="2048" ascent="1638" descent="-410" />
			<missing-glyph horiz-adv-x="593" />
			<glyph horiz-adv-x="0" />
			<glyph unicode="&#xd;" horiz-adv-x="1024" />
			<glyph unicode=" " horiz-adv-x="593" />
			<glyph unicode="&#x09;" horiz-adv-x="593" />
			<glyph unicode="&#xa0;" horiz-adv-x="593" />
			<glyph unicode="!" horiz-adv-x="407"
				   d="M111 61q0 -37 27.5 -62.5t64.5 -25.5q39 0 66.5 26t27.5 62q0 41 -27.5 69t-68.5 28q-35 0 -63.5 -29t-26.5 -68zM135 487q0 -31 19.5 -51t46.5 -20q31 0 51 20t20 49v953q0 29 -20.5 50t-48.5 21q-29 0 -48.5 -20.5t-19.5 -48.5v-953z" />
			<glyph unicode="&#x22;" horiz-adv-x="632"
				   d="M33 1171q0 -35 17.5 -58t43.5 -23q27 0 46.5 12t27.5 28l125 269q6 14 6 24q0 35 -18.5 57.5t-44.5 22.5q-59 0 -76 -41l-123 -268q-4 -10 -4 -23zM291 1171q0 -35 18.5 -58t44.5 -23q25 0 45.5 12t28.5 28l123 269q6 14 6 24q0 35 -18.5 57.5t-44.5 22.5q-55 0 -76 -41 l-121 -268q-6 -16 -6 -23z" />
			<glyph unicode="#" horiz-adv-x="1294"
				   d="M109 475h235l-92 -438h86l92 438h227l-92 -438h86l92 438h236l18 86h-237l76 352h235l19 86h-236l92 439h-86l-92 -439h-227l92 439h-86l-92 -439h-236l-18 -86h235l-74 -352h-235zM449 561l73 352h228l-76 -352h-225z" />
			<glyph unicode="$" horiz-adv-x="972"
				   d="M59 156q0 -55 101 -105q33 -16 60.5 -27.5t59 -19.5t68.5 -12t88 -8v-88q0 -18 10.5 -29.5t26.5 -11.5t26.5 11t10.5 28v90q59 12 103 24t78 29.5t61.5 40t54.5 53.5q59 66 90 151t31 175q0 104 -50.5 188t-136.5 131q-33 16 -72.5 34.5t-86.5 35.5l-72 24v500 q33 -6 57.5 -12t48 -15.5t47 -22.5t58.5 -34q18 -10 30.5 -16t22.5 -6q31 0 51 30q14 23 15 41q0 47 -95 101q-27 14 -50 23t-50 15.5t-59.5 10.5t-75.5 8v98q0 16 -12.5 27.5t-28.5 11.5t-24.5 -10t-8.5 -27v-106q-80 -12 -145.5 -45t-111.5 -81t-71.5 -109.5t-25.5 -131.5 t29.5 -135t81.5 -113q55 -49 118 -77q10 -4 33 -11.5t57 -23.5q12 -4 35 -15v-630q-29 0 -49 1t-37.5 6t-36 12t-45.5 20q-18 10 -31.5 15t-21.5 13l-35 25q-16 12 -29.5 15t-25.5 3q-27 0 -46.5 -20.5t-19.5 -48.5zM233 1130q0 84 58.5 151t144.5 83v-467q-63 27 -93 46.5 t-58 51.5q-51 57 -52 135zM510 119v602q35 -10 55.5 -16.5t34.5 -11.5t25.5 -9t25.5 -12q59 -31 95 -93.5t36 -136.5q0 -111 -80 -202q-25 -31 -44 -50.5t-39.5 -33t-46 -21.5t-62.5 -16z" />
			<glyph unicode="%" horiz-adv-x="1511"
				   d="M82 1151q0 -76 23.5 -140.5t65.5 -112.5t98.5 -74.5t123.5 -26.5q70 0 128.5 26.5t101.5 73.5t67.5 111.5t24.5 140.5q0 164 -85 260t-229 96q-70 0 -128 -25.5t-101 -72.5t-66.5 -112.5t-23.5 -143.5zM197 1153q0 119 56 192.5t148 73.5q90 0 142.5 -72.5t52.5 -195.5 q0 -59 -15.5 -108.5t-43 -84t-64.5 -55t-82 -20.5q-41 0 -76.5 20.5t-62.5 57t-41 86t-14 106.5zM420 27q0 -25 14.5 -42.5t34.5 -17.5q45 0 59 37l553 1428q4 12 4 14q0 25 -15 43t-36 18q-20 0 -36.5 -9t-22.5 -25l-549 -1430q-6 -10 -6 -16zM795 311q0 -78 23.5 -141.5 t64.5 -108.5t99 -70.5t130 -25.5q70 0 129 25.5t101 70.5t66 107.5t24 138.5q0 174 -84 265.5t-238 91.5q-70 0 -127 -27t-99 -73t-65.5 -111.5t-23.5 -141.5zM911 317q0 123 53.5 193t149.5 70q197 0 197 -283q0 -115 -54.5 -181.5t-146.5 -66.5t-145.5 73t-53.5 195z" />
			<glyph unicode="&#x26;" horiz-adv-x="1386"
				   d="M90 412q0 -96 36 -177t97.5 -141.5t145.5 -94.5t182 -34q111 0 215 45t182 125q16 18 33.5 40t38.5 46l192 -227q18 -20 54 -21q66 0 65 70q0 23 -12 35l-219 258q70 102 108 151q45 55 71 103.5t26 83.5q0 70 -52 69q-41 0 -73.5 -36.5t-77.5 -131.5q-23 -49 -86 -133 l-369 443q35 23 59.5 39t45 30.5t36 28.5t31.5 33q98 104 99 225q0 121 -89.5 194.5t-232.5 73.5q-72 0 -130 -20.5t-101 -57t-67 -89t-24 -115.5q0 -61 25 -115.5t84 -126.5q10 -10 24.5 -28.5t34.5 -43.5q-53 -33 -92 -58.5t-68.5 -51t-53 -52t-46.5 -61.5 q-92 -133 -92 -278zM242 428q0 90 47 172q18 33 37.5 58.5t46 50t63.5 49t88 55.5l406 -485q-23 -29 -42.5 -53.5t-35.5 -41.5q-53 -59 -133 -94t-158 -35q-70 0 -128 25t-101 68t-66.5 102t-23.5 129zM414 1237q0 66 49 106.5t127 40.5t130 -44t52 -107q0 -39 -15.5 -76 t-43.5 -63q-12 -10 -22.5 -19.5t-27 -22t-41 -27.5t-61.5 -38q-20 25 -35.5 44.5t-25.5 31.5q-49 59 -67.5 97t-18.5 77z" />
			<glyph unicode="'" horiz-adv-x="360"
				   d="M20 1171q0 -35 17.5 -58t44.5 -23q25 0 45.5 12t28.5 28l123 269q6 14 6 24q0 35 -18.5 57.5t-45.5 22.5q-55 0 -76 -41l-120 -268q-4 -10 -5 -23z" />
			<glyph unicode="(" horiz-adv-x="399"
				   d="M111 762q0 -90 8 -195.5t23.5 -211t37 -206t45.5 -180.5q16 -57 64 -57q23 0 40 16.5t17 38.5q0 4 -2 15.5t-6 21.5q-4 20 -12.5 56t-18.5 87q-14 72 -20 112t-8 50q-20 115 -30.5 229.5t-10.5 223.5t10 223.5t31 226.5q2 10 8 51.5t20 110.5q10 53 18.5 88t12.5 58 q4 10 6 20t2 16q0 23 -17.5 39.5t-39.5 16.5q-18 0 -30.5 -7.5t-23 -28t-20.5 -58t-22 -97.5q-82 -360 -82 -659z" />
			<glyph unicode=")" horiz-adv-x="399"
				   d="M51 -33q0 -23 17.5 -39t42.5 -16q27 0 43 18q6 8 10 17.5t9 28t12.5 48t17.5 78.5l39 170q8 37 15 96.5t13 141.5q8 94 11.5 163.5t3.5 110.5q0 80 -8.5 182.5t-23.5 207t-35.5 204t-45.5 174.5q-18 59 -61 60q-25 0 -42.5 -16.5t-17.5 -39.5q0 -6 2 -16l4 -20 q6 -23 13.5 -58t17.5 -88q14 -70 21.5 -110.5t9.5 -51.5q41 -229 41 -452q0 -279 -72 -613l-31 -143q-4 -23 -5 -28t-1 -9z" />
			<glyph unicode="*" horiz-adv-x="788"
				   d="M74 1300q0 -49 30 -65l215 -90l-206 -90q-37 -16 -37 -68q0 -25 19.5 -40t47.5 -15q20 0 33 12l178 131l-24 -227q0 -29 18.5 -48.5t44.5 -19.5q29 0 47.5 19.5t18.5 48.5l-25 227l176 -131q14 -12 35 -12q29 0 47.5 15.5t18.5 39.5q0 51 -35 68l-209 90l215 90 q31 12 31 65q0 27 -18.5 42.5t-49.5 15.5q-16 0 -33 -10l-180 -140l27 236q0 27 -18.5 46t-47.5 19q-27 0 -45 -19.5t-18 -45.5l26 -236l-182 140q-14 10 -31 10q-31 0 -50 -16.5t-19 -41.5z" />
			<glyph unicode="+"
				   d="M63 702q0 -23 15.5 -39t38.5 -16h375v-381q0 -23 16 -38t39 -15t39 15.5t16 37.5v379h371q25 0 41 15.5t16 37.5q0 23 -15.5 39.5t-37.5 16.5h-375v372q0 23 -15.5 39.5t-37.5 16.5q-23 0 -39 -16.5t-16 -39.5v-370h-373q-23 0 -40.5 -15.5t-17.5 -38.5z" />
			<glyph unicode="," horiz-adv-x="362"
				   d="M20 -186q0 -35 18.5 -58.5t43.5 -23.5t44.5 12.5t29.5 30.5l125 268q2 6 3 11t1 12q0 35 -18.5 57t-45.5 22q-25 0 -45 -10t-31 -31l-120 -268q-4 -16 -5 -22z" />
			<glyph unicode="-" horiz-adv-x="710"
				   d="M82 537q0 -29 17 -47.5t40 -18.5h424q27 0 46.5 18.5t19.5 47.5t-19.5 47t-46.5 18h-424q-23 0 -40 -18.5t-17 -46.5z" />
			<glyph unicode="." horiz-adv-x="348"
				   d="M82 66q0 -37 27.5 -64t64.5 -27q39 0 65.5 26t26.5 60q0 41 -27.5 69t-66.5 28t-64.5 -26.5t-25.5 -65.5z" />
			<glyph unicode="/" horiz-adv-x="825"
				   d="M57 35q0 -27 13.5 -45.5t29.5 -18.5q48 0 64 45l600 1514q2 6 2 20q0 25 -12.5 43.5t-28.5 18.5q-45 0 -66 -47l-598 -1508q-4 -12 -4 -22z" />
			<glyph unicode="0"
				   d="M82 737q0 -172 32.5 -312t93 -238.5t146.5 -151.5t193 -53q106 0 192 53t146.5 151.5t93.5 238.5t33 312q0 174 -33 314.5t-93.5 239t-146.5 151.5t-192 53t-192.5 -53t-147 -151.5t-93 -239t-32.5 -314.5zM238 733q0 299 82 467t229 168q72 0 128 -44t96 -126 t61.5 -198.5t21.5 -264.5q0 -147 -21.5 -263t-63.5 -197.5t-100.5 -125t-131.5 -43.5q-70 0 -125.5 44.5t-94 125t-60 196.5t-21.5 261z" />
			<glyph unicode="1"
				   d="M233 1411q0 -29 16.5 -46t45.5 -17h205v-1291q0 -31 22.5 -53t50.5 -22q29 0 49.5 23.5t20.5 53.5v1338q0 35 -20.5 57.5t-49.5 22.5h-274q-29 0 -47.5 -19.5t-18.5 -46.5z" />
			<glyph unicode="2"
				   d="M117 1044q0 -53 17.5 -76.5t58.5 -23.5q31 0 50 19.5t21 54.5l6 100q2 51 25.5 95t60.5 77t85 51.5t104 18.5q102 0 169.5 -64.5t67.5 -160.5q0 -45 -17 -94.5t-52 -114.5q-14 -27 -26.5 -49.5t-28 -47t-36 -54.5t-49.5 -70q-35 -51 -59.5 -84t-38.5 -54l-307 -434 q-16 -23 -22.5 -38t-6.5 -29q0 -29 25.5 -47.5t71.5 -18.5h675q29 0 47.5 19.5t18.5 46.5q0 29 -20.5 47t-51.5 18h-581l129 178l163 234l146 194q84 111 127 214.5t43 174.5q0 78 -30 145.5t-82 118t-121.5 79t-149.5 28.5q-92 0 -171 -35t-137.5 -95t-91 -143t-32.5 -180z " />
			<glyph unicode="3"
				   d="M119 322q0 -47 29.5 -108.5t76.5 -109.5q123 -123 297 -122q94 0 177 34.5t144.5 96t97.5 144.5t36 177q0 82 -38 162t-97 125q-18 16 -48 32.5t-67 34.5q33 31 57.5 54.5t41 46t27.5 46t19 52.5q18 61 19 127q0 82 -26.5 151.5t-75 121t-113 80t-139.5 28.5 q-74 0 -138.5 -28.5t-112.5 -77t-76 -113t-28 -135.5q0 -41 19.5 -66.5t50.5 -25.5q63 0 74 73l8 58q12 86 64.5 135t129.5 49q94 0 152.5 -72.5t58.5 -189.5q0 -102 -47 -175t-119 -83l-55 -8q-23 -4 -37 -22.5t-14 -41.5q0 -18 10 -36.5t25 -22.5q14 -6 67 -11 q111 -10 182.5 -90t71.5 -198q0 -66 -21.5 -120t-61.5 -93t-94 -61.5t-120 -22.5q-205 0 -268 209q-12 39 -25.5 52t-42.5 13t-50 -20.5t-21 -48.5z" />
			<glyph unicode="4"
				   d="M59 463q0 -23 14.5 -41.5t35.5 -22.5q4 -2 63 -2h559v-342q0 -29 21.5 -51t50.5 -22t48 22.5t19 50.5l-2 344h84q31 0 54.5 17.5t23.5 42.5q0 29 -20.5 47t-51.5 18h-84l-6 830q0 66 -35.5 103.5t-95.5 37.5q-76 0 -112 -65l-533 -891q-20 -35 -26.5 -48.5t-6.5 -27.5z M242 526l489 854v-854h-489z" />
			<glyph unicode="5"
				   d="M94 213q0 -29 24.5 -58.5t74.5 -66.5q66 -47 151.5 -75.5t167.5 -28.5q94 0 175 39.5t141.5 108.5t95 162t34.5 202q0 98 -29.5 180t-82.5 142.5t-126 94t-159 33.5q-23 0 -41 -2t-37.5 -6t-41 -11.5t-50.5 -19.5l70 441h397q31 0 52.5 18t21.5 47q0 27 -22.5 45.5 t-53.5 18.5h-430q-31 0 -48.5 -2t-27.5 -10.5t-15 -26t-9 -45.5l-80 -527q-4 -31 -4 -39t-4 -24q0 -20 28 -39q20 -14 37 -14q10 0 19.5 5t33.5 17q33 16 78 28.5t82 12.5q129 0 207 -87t78 -230q0 -82 -22.5 -152t-62.5 -120t-96.5 -77.5t-121.5 -27.5q-63 0 -137 32.5 t-123 86.5q-29 29 -39.5 35t-32.5 6q-29 0 -50.5 -18.5t-21.5 -47.5z" />
			<glyph unicode="6"
				   d="M127 500q0 -115 30.5 -211t86 -166t133.5 -108t170 -38t169 38t132 103.5t87 157t32 199.5q0 102 -30 189.5t-82 151t-125 99t-157 35.5q-82 1 -221 -65q51 94 91 159.5t80 120t88 103.5t118 114q14 12 19.5 21.5t5.5 26.5q0 31 -19.5 49t-52.5 18q-16 0 -29.5 -7 t-34.5 -28q-90 -90 -162.5 -175t-119.5 -152q-104 -152 -156.5 -314t-52.5 -321zM274 479q0 168 71 257t200 89t202.5 -99t73.5 -277q0 -76 -20.5 -137.5t-57 -105.5t-89 -68.5t-113.5 -24.5q-123 0 -195 98t-72 268z" />
			<glyph unicode="7"
				   d="M115 1411q0 -29 21.5 -48.5t53.5 -19.5h623l-541 -1271q-4 -16 -4 -19q0 -31 17.5 -52t40.5 -21q25 0 45 12t28 31l574 1359q6 14 6 33q0 29 -20.5 45.5t-55.5 16.5h-717q-29 0 -50 -18.5t-21 -47.5z" />
			<glyph unicode="8"
				   d="M121 440q0 -102 31.5 -187t88 -146.5t135.5 -95.5t173 -34q92 0 169 35t134 96.5t89 146.5t32 185q0 104 -43 197.5t-107 138.5q-37 27 -116 55q35 25 59.5 45.5t41.5 40t31.5 40t26.5 44.5q37 70 37 154q0 76 -26.5 140.5t-73.5 110.5t-112.5 71.5t-143.5 25.5 t-143.5 -25.5t-112.5 -71.5t-74 -110.5t-27 -140.5q0 -72 33 -143.5t86 -118.5q16 -14 35.5 -30t42.5 -32q-49 -18 -84 -35.5t-59.5 -39t-43 -50t-36.5 -67.5q-20 -47 -31.5 -96t-11.5 -103zM276 444q0 143 74 229.5t197 86.5q125 0 197.5 -87t72.5 -235q0 -72 -20.5 -131 t-57.5 -103t-87 -68.5t-109 -24.5q-57 0 -106.5 24.5t-84.5 69.5t-55.5 106.5t-20.5 132.5zM326 1145q0 106 61.5 173.5t159.5 67.5t159.5 -67.5t61.5 -175.5q0 -51 -17.5 -95t-47 -77t-70.5 -52.5t-88 -19.5t-87 19.5t-69 53.5t-46 78t-17 95z" />
			<glyph unicode="9"
				   d="M127 999q0 -104 29.5 -192t82 -150.5t124 -98.5t157.5 -36q80 1 221 64q-39 -72 -69.5 -123t-61 -93t-62.5 -81t-73 -82q-23 -23 -50.5 -53.5t-66.5 -69.5q-18 -16 -18 -41q0 -29 20.5 -48.5t51.5 -19.5q16 0 29.5 7.5t33.5 27.5q86 88 161 175t122 155 q104 152 156.5 312.5t52.5 320.5q0 117 -31 213t-86 165.5t-132 107.5t-171 38q-92 0 -169 -38t-132.5 -103.5t-87 -157.5t-31.5 -199zM272 1008q0 166 75 261t204 95t199.5 -101.5t70.5 -287.5q0 -154 -73.5 -241t-198.5 -87q-127 0 -202 97.5t-75 263.5z" />
			<glyph unicode=":" horiz-adv-x="378"
				   d="M111 66q0 -37 27.5 -64t64.5 -27q39 0 66.5 26t27.5 60q0 41 -28.5 69t-67.5 28q-35 0 -62.5 -26.5t-27.5 -65.5zM111 770q0 -39 27.5 -64.5t64.5 -25.5q41 0 68.5 25.5t27.5 64.5t-27.5 65.5t-68.5 26.5q-37 0 -64.5 -26.5t-27.5 -65.5z" />
			<glyph unicode=";" horiz-adv-x="411"
				   d="M49 -186q0 -35 17.5 -58.5t44.5 -23.5q25 0 44 12.5t29 30.5l125 268q2 6 4 11t2 12q0 35 -19.5 57t-45.5 22q-57 0 -76 -41l-121 -268q-4 -16 -4 -22zM143 772q0 -39 29 -64.5t70 -25.5q37 0 62.5 27.5t25.5 64.5t-25.5 63.5t-64.5 26.5t-68 -26.5t-29 -65.5z" />
			<glyph unicode="&#x3c;" horiz-adv-x="491"
				   d="M82 547q0 -8 29 -62l170 -305q12 -23 30.5 -36t34.5 -13q25 0 44.5 18.5t19.5 40.5q0 18 -19 48l-182 307l184 305q14 25 15 47q0 59 -58 59q-20 0 -38.5 -12t-28.5 -31l-183 -319q-18 -35 -18 -47z" />
			<glyph unicode="="
				   d="M61 578q0 -23 16.5 -38.5t39.5 -15.5h858q23 0 40 16.5t17 39.5t-17.5 38t-41.5 15h-854q-23 0 -40.5 -16.5t-17.5 -38.5zM61 817q0 -23 16.5 -40t39.5 -17h858q23 0 38 17.5t15 39.5q0 23 -16.5 38t-38.5 15h-854q-25 0 -41.5 -15t-16.5 -38z" />
			<glyph unicode="&#x3e;" horiz-adv-x="491"
				   d="M82 897q0 -23 18 -49l183 -307l-185 -305q-14 -25 -14 -48q0 -59 57 -59q18 0 38 11.5t30 29.5l180 322q20 37 21 47q0 8 -31 61l-168 305q-12 23 -31.5 36t-36.5 13q-23 0 -42 -17t-19 -40z" />
			<glyph unicode="?" horiz-adv-x="933"
				   d="M53 1206q0 -33 20.5 -56.5t51.5 -23.5q55 0 70 70q37 176 243 176q117 0 188.5 -63.5t71.5 -167.5q0 -227 -233 -262q-39 -4 -52.5 -9.5t-27.5 -19.5q-18 -18 -23 -39v-35v-293q0 -29 20.5 -48t51.5 -19q27 0 46.5 18.5t19.5 46.5v262q45 8 76.5 17.5t58.5 22t49.5 27.5 t46.5 38q121 111 121 289q0 84 -29.5 152.5t-84 116.5t-131.5 74.5t-171 26.5q-80 0 -149.5 -23.5t-121.5 -64.5t-82 -96t-30 -117zM344 57q0 -37 26.5 -61.5t63.5 -24.5q39 0 65.5 24.5t26.5 61.5q0 39 -26.5 67t-67.5 28q-37 0 -62.5 -28t-25.5 -67z" />
			<glyph unicode="@" horiz-adv-x="1708"
				   d="M123 643q16 -150 76.5 -273.5t155 -211.5t215 -136.5t257.5 -48.5q147 0 280.5 58.5t256.5 185.5q14 14 26.5 28.5t26.5 30.5l-47 54q-49 -59 -115 -115q-25 -20 -50 -38.5t-52 -35.5q-135 -82 -277.5 -90t-267.5 47.5t-220 168t-136 272t-17.5 308t96 267.5t183.5 198 t246 99q143 20 264 -17.5t204 -125.5t120.5 -218t17.5 -290q-14 -98 -41 -167t-61 -110q-41 -49 -67 -70.5t-54 -31.5q-37 -14 -73 4t-46 57q-8 27 -10 57.5t4 71.5l29 185l79 446l-98 2l-18 -127q-2 6 -4 11.5t-7 11.5q-47 92 -138 110.5t-193 -55.5q-72 -53 -124 -150.5 t-73 -230.5q-4 -18 -5 -36.5t-3 -37.5q-10 -147 34 -237t115 -125q154 -72 271 61q29 33 41 74q-4 -41 10 -76t42 -60.5t67.5 -36.5t84.5 -5q53 8 106.5 40t97.5 88t78 136t50 182q27 176 -16 323.5t-138.5 251t-235.5 154t-306 31.5q-141 -16 -270 -92t-226 -205 q-86 -117 -124 -261t-21 -300zM571 594q-2 37 1 85t14 101q8 51 24 103q20 59 39 98t41 68q55 72 122 75.5t112 -45.5q35 -39 43 -84t-2 -123l-13 -84l-4 -22q-10 -51 -20 -94t-21 -70q-25 -72 -45 -107.5t-49 -64.5q-27 -25 -57.5 -34t-61 -4t-56.5 23.5t-40 49.5 q-21 45 -27 129z" />
			<glyph unicode="A" horiz-adv-x="1253"
				   d="M27 45q0 -29 17 -47t46 -18q47 0 68 49l114 299h709l115 -299q20 -49 69 -49q27 0 44.5 18t17.5 47q0 23 -6 41l-488 1313q-10 29 -20.5 46t-22.5 27.5t-28.5 14.5t-40.5 4q-39 0 -58.5 -19.5t-40.5 -72.5l-487 -1313q-4 -10 -6 -20.5t-2 -20.5zM311 449l316 860 l313 -860h-629z" />
			<glyph unicode="B" horiz-adv-x="1099"
				   d="M141 70q0 -70 78 -70h373q94 0 175 33t139.5 91t92 138t33.5 174q0 80 -26.5 145.5t-79.5 118.5q-23 23 -44.5 39.5t-46 26.5t-55 17.5t-73.5 13.5q39 18 67.5 33.5t50 34t37 41t27.5 50.5q14 35 22.5 70t8.5 72q0 82 -31 150.5t-84 119.5t-126 80t-157 29h-303 q-78 0 -78 -68v-1339zM281 127v602h290q66 0 123.5 -23.5t100.5 -64.5t68.5 -96.5t25.5 -118.5t-25.5 -117.5t-68.5 -94.5t-100.5 -63.5t-123.5 -23.5h-290zM285 838v508h215q57 0 106 -19.5t86 -54.5t58.5 -81t21.5 -99t-23.5 -99.5t-64.5 -80t-96.5 -54t-116.5 -20.5h-186 z" />
			<glyph unicode="C" horiz-adv-x="1239"
				   d="M82 727q0 -168 47 -305t132 -235.5t205 -152.5t265 -54q115 0 219.5 31.5t177.5 90.5q49 37 50 80q0 31 -19.5 50.5t-48.5 19.5q-12 0 -26.5 -5t-30.5 -22q-55 -41 -90 -60.5t-84 -33.5q-61 -20 -144 -20q-115 0 -208 45t-158.5 125.5t-102.5 196.5t-37 257q0 139 36 256 t99.5 200t151.5 129t195 46q61 0 124.5 -19.5t112.5 -54.5q10 -8 25.5 -19t32.5 -28q23 -23 38 -31t31 -8q27 0 47.5 20.5t20.5 49.5q0 70 -123 141q-133 80 -307 80q-141 0 -258 -56.5t-200 -157.5t-128 -242.5t-45 -313.5z" />
			<glyph unicode="D" horiz-adv-x="1298"
				   d="M141 70q0 -33 21.5 -51.5t58.5 -18.5h369q143 0 259 52t197.5 149.5t126 233.5t44.5 304q0 162 -45.5 297t-126 233.5t-193.5 153t-246 54.5h-391q-29 0 -50.5 -19.5t-21.5 -46.5zM281 127v1223h309q104 0 191 -44t148.5 -124t96.5 -191.5t35 -247.5q0 -143 -34 -256.5 t-96.5 -193.5t-151.5 -123t-199 -43h-299z" />
			<glyph unicode="E" horiz-adv-x="899"
				   d="M141 80q0 -37 19.5 -58.5t54.5 -21.5h535q29 0 48 18.5t19 47.5t-19.5 47t-47.5 18h-465v541h424q29 0 47 19.5t18 45.5q0 27 -19.5 45.5t-47.5 18.5h-418v545h438q29 0 48.5 18t19.5 47t-18.5 47.5t-47.5 18.5h-512q-33 0 -54.5 -21.5t-21.5 -54.5v-1321z" />
			<glyph unicode="F" horiz-adv-x="823"
				   d="M141 53q0 -31 21.5 -51t54.5 -20q27 0 46.5 21.5t19.5 49.5v619h411q29 0 48.5 18.5t19.5 44.5q0 27 -19.5 45.5t-48.5 18.5h-405v547h456q29 0 48.5 19t19.5 48q0 27 -18.5 45.5t-44.5 18.5h-525q-39 0 -61.5 -20.5t-22.5 -55.5v-1348z" />
			<glyph unicode="G" horiz-adv-x="1392"
				   d="M82 717q0 -166 46 -301t132 -232.5t206 -149.5t267 -52q285 0 439.5 183t154.5 517q0 90 -26.5 119.5t-104.5 29.5h-285q-29 0 -49 -16t-20 -45t19.5 -47t47.5 -18h273q-2 -80 -7.5 -139.5t-14.5 -105.5t-23.5 -82t-36.5 -73q-57 -94 -152.5 -145t-214.5 -51 q-115 0 -207 43t-157.5 123.5t-100.5 195.5t-35 256q0 145 36 264t100.5 204t156.5 131t205 46q92 0 176 -32.5t174 -104.5q31 -25 44.5 -32t27.5 -7q31 0 52.5 19.5t21.5 48.5t-26.5 58.5t-86.5 66.5q-178 108 -375 108h-4q-145 0 -266 -56.5t-207 -159.5t-133 -246.5 t-47 -317.5z" />
			<glyph unicode="H" horiz-adv-x="1386"
				   d="M141 51q0 -29 21.5 -49t52.5 -20q29 0 47.5 20.5t18.5 48.5v643h823v-643q0 -29 20.5 -49t49.5 -20t50 20.5t21 48.5v1368q0 29 -21.5 50.5t-49.5 21.5q-29 0 -49.5 -21.5t-20.5 -50.5v-602h-823v602q0 29 -19.5 50.5t-48.5 21.5t-50.5 -21.5t-21.5 -50.5v-1368z" />
			<glyph unicode="I" horiz-adv-x="421"
				   d="M141 49q0 -29 20.5 -49t51.5 -20q29 0 48.5 20t19.5 49v1370q0 29 -19.5 51.5t-48.5 22.5q-31 0 -51.5 -22.5t-20.5 -51.5v-1370z" />
			<glyph unicode="J" horiz-adv-x="724"
				   d="M-39 133q0 -47 76 -90q109 -63 217 -63q156 0 242 98t86 276v1069q0 31 -18.5 51.5t-45.5 20.5q-33 0 -55.5 -20.5t-22.5 -49.5v-1095q0 -88 -21.5 -134t-74.5 -79q-27 -12 -48.5 -19.5t-43.5 -7.5q-31 0 -64.5 13.5t-62.5 33.5l-53 37q-10 8 -26.5 13.5t-33.5 5.5 q-23 0 -37 -17.5t-14 -42.5z" />
			<glyph unicode="K" horiz-adv-x="1138"
				   d="M141 53q0 -31 21.5 -51t54.5 -20q27 0 46.5 20.5t19.5 50.5v666l739 -715q12 -10 28.5 -17t30.5 -7q29 0 47.5 17t18.5 46q0 12 -7 28.5t-20 28.5l-708 682l661 590q25 20 25 49t-19.5 49.5t-46.5 20.5q-29 0 -57 -29l-694 -620v583q0 29 -21.5 49.5t-50.5 20.5 t-48.5 -20.5t-19.5 -49.5v-1372z" />
			<glyph unicode="L" horiz-adv-x="749"
				   d="M141 0h539q29 0 49.5 19.5t20.5 46.5q0 29 -22.5 47t-55.5 18h-389v1290q0 31 -19.5 52.5t-48.5 21.5q-31 0 -51.5 -21.5t-20.5 -54.5v-1333l21 -59z" />
			<glyph unicode="M" horiz-adv-x="1740"
				   d="M80 43q0 -27 19.5 -44t47.5 -17q31 0 51.5 18t24.5 49l191 1292l387 -1308q8 -29 26.5 -42.5t42.5 -13.5q51 0 68 56l389 1308l191 -1292q4 -31 24.5 -49t48.5 -18q29 0 49.5 18t20.5 43q0 8 -1 15.5t-1 17.5l-221 1321q-8 43 -40 70.5t-77 27.5q-86 0 -113 -92 l-338 -1176l-340 1176q-29 92 -112 92q-43 0 -75 -27.5t-40 -70.5l-219 -1321q-2 -10 -3 -17.5t-1 -15.5z" />
			<glyph unicode="N" horiz-adv-x="1376"
				   d="M141 55q0 -29 21.5 -50t52.5 -21q29 0 47.5 21.5t18.5 49.5v1180l827 -1227q10 -12 25.5 -21.5t31.5 -9.5q29 0 49.5 20.5t20.5 51.5v1372q0 31 -19.5 52.5t-48.5 21.5q-31 0 -50 -21.5t-19 -54.5v-1177l-824 1224q-23 29 -57 29q-31 0 -53.5 -20.5t-22.5 -51.5v-1368z " />
			<glyph unicode="O" horiz-adv-x="1415"
				   d="M82 737q0 -166 46 -305t129 -238.5t197.5 -155.5t252.5 -56q137 0 252.5 56t198.5 155.5t129 238.5t46 305t-46 305.5t-129 238.5t-198.5 155.5t-252.5 56.5t-252 -56.5t-198 -155.5t-129 -238.5t-46 -305.5zM240 737q0 145 32.5 262t93 199t146.5 126t195 44 q106 0 193 -44t148.5 -126t94.5 -198.5t33 -262.5q0 -145 -33 -261t-94.5 -198.5t-148.5 -127t-193 -44.5q-109 0 -195 44.5t-146.5 126t-93 198.5t-32.5 262z" />
			<glyph unicode="P" horiz-adv-x="1077"
				   d="M141 53q0 -31 21.5 -51t52.5 -20q29 0 48.5 20.5t19.5 50.5v518h286q100 0 187.5 34t150 94.5t98 143.5t35.5 179t-35.5 179t-98 144.5t-147.5 96.5t-186 35h-337q-94 0 -95 -76v-1348zM285 700v650h284q68 0 128.5 -26t104.5 -70t70.5 -104t26.5 -128t-26.5 -126 t-70.5 -101t-104.5 -69t-128.5 -26h-284z" />
			<glyph unicode="Q" horiz-adv-x="1419"
				   d="M82 737q0 -166 46 -304t129 -238.5t197.5 -155.5t254.5 -55q63 0 114 8t99.5 29.5t98.5 57.5t114 91l153 -160q20 -16 49 -16q57 0 58 55q0 35 -21 55l-166 170q39 70 62.5 124.5t38 103.5t19.5 102t5 125q0 170 -46 310.5t-129 241.5t-197.5 156.5t-253.5 55.5 q-137 0 -252 -56.5t-198 -155.5t-129 -238.5t-46 -305.5zM240 737q0 145 32.5 262t93 199t146.5 126t195 44t195.5 -44t147 -126t93.5 -199.5t33 -263.5q0 -53 -2.5 -94t-9.5 -80t-19 -82t-33 -100l-127 129q-12 14 -45 14q-59 0 -59 -65q0 -33 16 -47l139 -144 q-47 -47 -85 -77.5t-74.5 -48t-76.5 -24.5t-91 -7q-109 0 -196 44t-147.5 124.5t-93 197.5t-32.5 262z" />
			<glyph unicode="R" horiz-adv-x="1069"
				   d="M141 53q0 -33 21.5 -53t52.5 -20q29 0 48.5 20t19.5 49v617l608 -664q22 -22 47 -22h2q31 0 50.5 19t19.5 48t-17 43l-540 574q23 -2 47 -2h47q51 0 91 4t72.5 12t61.5 21.5t57 31.5q78 53 122 139t44 189q0 90 -32.5 167t-91 132t-139.5 87t-175 32h-342 q-29 0 -51.5 -21.5t-22.5 -52.5v-1350zM283 782v564h266q61 0 116.5 -21.5t96.5 -59.5t64.5 -89.5t23.5 -108.5q0 -59 -20.5 -111.5t-57.5 -90.5t-86 -60.5t-104 -22.5h-299z" />
			<glyph unicode="S" horiz-adv-x="972"
				   d="M59 156q0 -51 103 -105q63 -33 138 -51t149 -18q104 0 191 35.5t151.5 99t100.5 150.5t36 190q0 104 -51.5 191t-137.5 128q-47 25 -161 66q-27 8 -56.5 20t-58.5 23.5t-53.5 23t-42.5 19.5q-45 23 -78 61q-53 59 -53 139q0 49 21.5 92.5t57 76t83.5 51t104 18.5 q53 0 99 -16.5t120 -63.5q18 -10 30.5 -16t22.5 -6q31 0 51 30q14 23 15 41q0 47 -95 101q-109 57 -241 57q-88 0 -165 -28.5t-134.5 -79t-90 -119t-32.5 -146.5q0 -104 59.5 -189t173.5 -136q27 -12 55.5 -24.5t61.5 -22.5q10 -4 38 -13.5t75 -25.5q88 -31 132 -61t71 -77 q16 -29 25 -59.5t9 -65.5q0 -72 -25.5 -133t-71.5 -106t-107.5 -70.5t-131.5 -25.5q-53 0 -117.5 19t-111.5 52l-35 25q-16 12 -30.5 15t-24.5 3q-29 0 -48.5 -20.5t-19.5 -48.5z" />
			<glyph unicode="T" horiz-adv-x="872"
				   d="M0 1415q0 -29 18.5 -48t42.5 -19h301v-1293q0 -29 23 -51t51 -22q29 0 47.5 22.5t18.5 50.5v1291h305q27 0 46 18t19 47q0 27 -18 46.5t-45 19.5h-746q-27 0 -45 -18.5t-18 -43.5z" />
			<glyph unicode="U" horiz-adv-x="1386"
				   d="M141 504q0 -133 36 -221t122 -162q78 -70 180.5 -105.5t212.5 -35.5q111 0 212.5 36.5t180.5 104.5q86 76 121 163t35 220v913q0 29 -20.5 51.5t-49.5 22.5t-48 -22.5t-19 -51.5v-917q0 -104 -25.5 -168t-89.5 -121q-59 -53 -136 -82t-161 -29t-159.5 29t-135.5 82 q-66 57 -91 120.5t-25 168.5v917q0 29 -19.5 51.5t-48.5 22.5t-50.5 -22.5t-21.5 -51.5v-913z" />
			<glyph unicode="V" horiz-adv-x="1142"
				   d="M20 1423q0 -20 7 -34l467 -1330q16 -49 30.5 -63t48.5 -14q29 0 44.5 15t31.5 62l467 1330q4 20 4 34q0 31 -19.5 50.5t-47.5 19.5q-51 0 -70 -61l-410 -1211l-413 1211q-23 61 -70 61q-29 0 -49.5 -19.5t-20.5 -50.5z" />
			<glyph unicode="W" horiz-adv-x="1662"
				   d="M51 1413q0 -6 2 -16l221 -1323q16 -94 115 -94q86 0 109 77l333 1205l334 -1205q23 -77 105 -77h2q100 0 117 94l221 1323q2 10 2 16v17q0 29 -19.5 47t-48.5 18q-61 0 -71 -70l-201 -1284l-371 1297q-8 25 -27.5 42t-42.5 17t-42 -17.5t-27 -41.5l-371 -1297l-201 1284 q-10 68 -73 68q-29 0 -47.5 -17.5t-18.5 -45.5v-17z" />
			<glyph unicode="X" horiz-adv-x="1218"
				   d="M25 45q0 -33 28 -51q16 -14 39 -14q16 0 32.5 11t29.5 27l454 664l457 -664q12 -16 27.5 -27t31.5 -11q20 0 41 14q29 20 29 51q0 20 -18 49l-484 699l416 591q14 25 14 41q0 29 -22.5 48.5t-50.5 19.5q-31 0 -60 -41l-381 -559l-381 559q-29 41 -59 41 q-29 0 -51.5 -19.5t-22.5 -46.5q0 -10 5 -21t12 -22l413 -591l-481 -699q-18 -25 -18 -49z" />
			<glyph unicode="Y" horiz-adv-x="1007"
				   d="M10 1427q0 -10 4 -19t9 -17l409 -699v-637q0 -35 19.5 -54t52.5 -19t52 19t19 54v637l412 699q8 14 8 36q0 29 -17 46.5t-48 17.5q-43 0 -64 -39l-362 -612l-361 612q-10 16 -27.5 27.5t-37.5 11.5q-29 0 -48.5 -17.5t-19.5 -46.5z" />
			<glyph unicode="Z" horiz-adv-x="1165"
				   d="M72 82q0 -82 127 -82h823q35 0 56.5 18.5t21.5 47.5q0 27 -21.5 44t-56.5 17h-780l800 1227q14 20 21.5 40.5t7.5 30.5q0 20 -16.5 34t-42.5 16q-10 2 -39 2h-74h-733q-27 0 -45.5 -18.5t-18.5 -45.5q0 -25 18.5 -44t45.5 -19h713l-793 -1215q-6 -14 -10 -26.5t-4 -26.5z " />
			<glyph unicode="[" horiz-adv-x="436"
				   d="M111 -2q0 -27 20 -45q18 -23 43 -23h145q27 0 46.5 19.5t19.5 46.5q0 23 -19.5 40t-46.5 17h-65v1370h65q27 0 46.5 17.5t19.5 40.5q0 29 -19.5 47t-46.5 18h-145q-20 0 -43 -22q-20 -18 -20 -45v-1481z" />
			<glyph unicode="\" horiz-adv-x="632" d="M109 1475l258 -1475h110l-258 1475h-110z" />
			<glyph unicode="]" horiz-adv-x="436"
				   d="M53 -4q0 -27 18.5 -46.5t45.5 -19.5h145q25 0 43 23q20 18 21 45v1481q0 27 -21 45q-23 23 -43 22h-145q-27 0 -45.5 -18.5t-18.5 -46.5q0 -23 18.5 -40.5t45.5 -17.5h65v-1370h-65q-27 0 -45.5 -17.5t-18.5 -39.5z" />
			<glyph unicode="^" horiz-adv-x="620"
				   d="M-2 1239q0 -25 22.5 -42t55.5 -17q14 0 22 4l211 84l207 -84q12 -6 25 -6q33 0 57.5 18t24.5 45q0 61 -45 78l-226 84q-37 14 -43 14t-41 -14l-223 -88q-23 -8 -35 -28.5t-12 -47.5z" />
			<glyph unicode="_" horiz-adv-x="1032" d="M109 0v-51h737v51h-737z" />
			<glyph unicode="`" horiz-adv-x="434"
				   d="M-4 1372q0 -56 47 -74l295 -116q16 -4 20 -4q33 0 55.5 17t22.5 40q0 29 -13 49.5t-36 28.5l-295 114q-12 4 -18 5q-33 0 -55.5 -18.5t-22.5 -41.5z" />
			<glyph unicode="a" horiz-adv-x="1148"
				   d="M82 545q0 -123 35 -225.5t96 -178t147 -117.5t189 -42q53 0 95 8t78 28.5t69.5 55.5t72.5 86v-101q0 -33 21.5 -56t52.5 -23q29 0 49.5 20t20.5 49v991q0 29 -19.5 49.5t-48.5 20.5q-31 0 -52.5 -22.5t-21.5 -51.5v-80q-43 45 -79.5 74t-73.5 46.5t-77 24.5t-91 7 q-100 0 -185.5 -42t-146.5 -118t-96 -178t-35 -225zM233 547q0 205 89 324.5t243 119.5q68 0 128.5 -28.5t101.5 -83.5q23 -29 38 -61t24 -69.5t13 -84t4 -107.5q0 -457 -321 -457q-147 0 -233.5 120t-86.5 327z" />
			<glyph unicode="b" horiz-adv-x="1146"
				   d="M141 51q0 -31 20.5 -52.5t51.5 -21.5q29 0 48.5 21.5t19.5 52.5v96q41 -51 74.5 -83.5t70.5 -51t80 -25.5t100 -7q100 0 184 41.5t145.5 116.5t95.5 179.5t34 229.5q0 123 -34 225t-95.5 177t-145 117t-182.5 42q-51 0 -92 -8t-78 -27.5t-73.5 -53.5t-81.5 -83v588 q0 29 -19.5 49t-48.5 20q-31 0 -52.5 -20.5t-21.5 -48.5v-1473zM281 547q0 109 15 176.5t54 126.5q41 63 105.5 98t140.5 35q147 0 232 -119t85 -321q0 -203 -84 -318.5t-231 -115.5q-84 0 -151.5 36.5t-108.5 104.5q-33 53 -45 122.5t-12 174.5z" />
			<glyph unicode="c" horiz-adv-x="905"
				   d="M82 545q0 -125 35 -228.5t98.5 -177t153.5 -114.5t198 -41q55 0 104.5 10t86.5 27.5t58.5 41t21.5 50.5q0 29 -20.5 48t-51.5 19q-4 0 -6 -2t-6 -2l-33 -14l-39 -17l-39 -16q-16 -8 -34.5 -10t-39.5 -2q-72 0 -133 32.5t-105 91t-68.5 138.5t-24.5 176t24.5 175 t68.5 134.5t105.5 86t134.5 30.5q31 0 67 -9t69 -26l30 -16q14 -8 35 -8q29 0 50.5 22.5t21.5 50.5q0 25 -22.5 45.5t-59.5 36t-86 24.5t-103 9q-109 0 -198.5 -42t-155 -116.5t-101.5 -179t-36 -227.5z" />
			<glyph unicode="d" horiz-adv-x="1150"
				   d="M82 543q0 -119 35 -221.5t96 -177t144 -117.5t182 -43q61 0 119.5 18t99.5 51q43 35 108 113v-100q0 -35 21.5 -59.5t52.5 -24.5q29 0 49.5 20.5t20.5 50.5v1471q0 29 -19.5 49t-46.5 20q-33 0 -53.5 -20.5t-20.5 -48.5v-596q-41 53 -75.5 88t-70.5 55.5t-77 28.5t-92 8 q-102 0 -189 -43t-150.5 -118t-98.5 -178t-35 -226zM233 535v18q0 92 24 170t67 134t101 88t130 32q78 0 146.5 -40t109.5 -106q57 -100 57 -319q0 -90 -12 -143.5t-41 -100.5q-43 -72 -116.5 -111.5t-155.5 -39.5q-68 0 -124.5 29.5t-98 84t-64.5 131t-23 173.5z" />
			<glyph unicode="e" horiz-adv-x="1089"
				   d="M82 549q0 -127 36 -231.5t101.5 -180.5t157.5 -116.5t205 -40.5q186 0 336 110q49 35 68.5 61.5t19.5 55.5t-20.5 49t-49.5 20t-55 -24l-56 -49q-102 -92 -243 -92q-96 0 -174 47t-113 125q-16 41 -30.5 91t-24.5 111h678q61 0 81.5 16.5t20.5 65.5q0 37 -6 80t-18.5 88 t-28 87t-33.5 73q-59 100 -157.5 156.5t-219.5 56.5q-102 0 -189 -42t-150.5 -118t-99.5 -178t-36 -221zM238 602q6 47 11 81t13 60.5t18.5 49t26.5 49.5q41 68 106.5 104.5t141.5 36.5q84 0 149.5 -41t106.5 -121q25 -47 36 -91t23 -128h-632z" />
			<glyph unicode="f" horiz-adv-x="491"
				   d="M8 1034q0 -27 16.5 -45t38.5 -18h111v-918q0 -31 20.5 -52t47.5 -21q29 0 51 21.5t22 51.5v918h134q29 0 48 18.5t19 42.5q0 25 -20.5 42.5t-49.5 17.5h-131v231v57q0 23 2 35t4.5 19.5t8.5 13.5q20 20 67 20h15q16 -2 29.5 -3t21.5 -1q31 0 52.5 19.5t21.5 48.5 q0 27 -26 45t-62 18h-82q-90 0 -143.5 -53t-53.5 -149v-301h-107q-23 0 -39 -16.5t-16 -41.5z" />
			<glyph unicode="g" horiz-adv-x="1144"
				   d="M82 528q0 -123 34 -225t94 -176t144 -115t185 -41q55 0 97 8.5t80 28t73.5 53t78.5 84.5q0 -23 1 -44t1 -40q0 -43 -2 -75.5t-8 -58t-15 -49t-24 -48.5q-18 -33 -49 -61.5t-69.5 -49t-84 -32t-90.5 -11.5q-72 0 -147.5 31t-140.5 86q-16 16 -26.5 20.5t-20.5 4.5 q-35 0 -57.5 -20.5t-22.5 -51.5q0 -49 104 -113q66 -39 144.5 -62.5t158.5 -23.5q109 0 211.5 42t165.5 112q55 61 81 141t26 185v1013q0 29 -18.5 50.5t-47.5 21.5t-49.5 -22.5t-20.5 -51.5v-102q-43 49 -78.5 82t-72.5 52.5t-77 26.5t-89 7q-102 0 -187 -43t-148.5 -120 t-98.5 -182.5t-35 -230.5zM236 549q0 199 87 314.5t238 115.5q57 0 111.5 -22.5t96.5 -61.5t67.5 -91t27.5 -110l6 -168v-43q0 -49 -3 -85t-10 -63.5t-19.5 -51t-30.5 -50.5q-45 -61 -110.5 -96t-139.5 -35q-152 0 -236.5 119t-84.5 328z" />
			<glyph unicode="h" horiz-adv-x="1112"
				   d="M141 47q0 -29 21.5 -48t52.5 -19q27 0 46.5 19t19.5 48v655q0 57 22.5 107.5t60 88.5t90 59.5t111.5 21.5q55 0 103.5 -22.5t84 -60.5t56 -89t20.5 -109v-651q0 -29 20.5 -49.5t49.5 -20.5t50.5 20.5t21.5 51.5v637q0 104 -24.5 172t-82 125t-134.5 89t-155 32 q-88 0 -169 -43q-41 -20 -65.5 -41t-59.5 -68v568q0 29 -18.5 49t-47.5 20q-31 0 -52.5 -20.5t-21.5 -48.5v-1473z" />
			<glyph unicode="i" horiz-adv-x="428"
				   d="M119 1339q0 -39 28.5 -65.5t69.5 -26.5q39 0 64.5 26.5t25.5 65.5q0 41 -25.5 70t-62.5 29q-41 0 -70.5 -29t-29.5 -70zM143 53q0 -31 20.5 -51t51.5 -20q29 0 48.5 20t19.5 51v987q0 29 -18.5 49.5t-47.5 20.5q-31 0 -52.5 -20.5t-21.5 -49.5v-987z" />
			<glyph unicode="j" horiz-adv-x="419"
				   d="M113 1339q0 -39 27.5 -65.5t68.5 -26.5q37 0 64.5 26.5t27.5 65.5q0 41 -27.5 71t-64.5 30q-41 0 -68.5 -30t-27.5 -71zM139 -375q0 -29 21.5 -48t50.5 -19t47 19t18 48v1415q0 31 -18 51.5t-47 20.5t-50.5 -20.5t-21.5 -53.5v-1413z" />
			<glyph unicode="k" horiz-adv-x="933"
				   d="M141 55q0 -33 21.5 -53t52.5 -20q29 0 47.5 20.5t18.5 50.5v475l516 -510q40 -36 60 -36h1q29 0 49.5 19t20.5 48q0 33 -27 55l-539 521l474 362q16 10 24 27.5t8 29.5q0 29 -19.5 48.5t-45.5 19.5q-23 0 -55 -27l-467 -374v815q0 29 -18.5 51t-47.5 22 q-31 0 -52.5 -21.5t-21.5 -49.5v-1473z" />
			<glyph unicode="l" horiz-adv-x="421"
				   d="M141 55q0 -33 21.5 -54t50.5 -21t48.5 23t19.5 56v1467q0 29 -20.5 49t-49.5 20t-49.5 -20.5t-20.5 -48.5v-1471z" />
			<glyph unicode="m" horiz-adv-x="1718"
				   d="M141 53q0 -31 21.5 -52t52.5 -21q29 0 47.5 21.5t18.5 51.5v676q0 53 19 99t54 81t82 55.5t101 20.5q53 0 100 -20.5t82 -55.5t55.5 -81t20.5 -99v-676q0 -31 20.5 -51t48.5 -20q29 0 48.5 20.5t19.5 50.5v676q0 51 21.5 98t59.5 81t89 54.5t108 20.5q47 0 89 -20.5 t74 -54.5t50.5 -81t18.5 -98v-676q0 -31 20.5 -51t48.5 -20q29 0 47.5 20.5t18.5 50.5v674q0 59 -3 97t-13.5 66t-29 51.5t-50.5 53.5q-57 53 -131 83t-154 30t-153.5 -29.5t-116.5 -79.5q-14 -16 -31 -38.5t-33 -53.5q-18 37 -33.5 62.5t-34 44t-40 33t-52.5 28.5 q-35 16 -73.5 26.5t-77.5 10.5q-88 0 -152.5 -34t-117.5 -107v65q0 29 -19.5 51.5t-48.5 22.5t-50.5 -21.5t-21.5 -50.5v-985z" />
			<glyph unicode="n" horiz-adv-x="1112"
				   d="M141 47q0 -29 21.5 -48t52.5 -19q27 0 46.5 19t19.5 48v655q0 57 22.5 107.5t60 88.5t90 59.5t111.5 21.5q55 0 103.5 -22.5t84 -60.5t56 -89t20.5 -109v-651q0 -29 20.5 -49.5t49.5 -20.5t50.5 20.5t21.5 51.5v637q0 106 -24.5 174t-82.5 127q-57 57 -133 89t-156 32 q-88 0 -169 -43q-41 -20 -64.5 -42t-58.5 -67v82q0 29 -19.5 51.5t-48.5 22.5q-31 0 -52.5 -20.5t-21.5 -51.5v-993z" />
			<glyph unicode="o" horiz-adv-x="1103"
				   d="M82 545q0 -121 36 -224.5t98.5 -179t148.5 -118.5t188 -43q100 0 186 43t148.5 118.5t98.5 179t36 224.5t-36 224t-98.5 179t-148.5 119t-186 43q-102 0 -188 -43t-148.5 -119t-98.5 -179t-36 -224zM236 545q0 98 22.5 180t64.5 139.5t100 89t130 31.5q70 0 129 -31.5 t100 -89t64.5 -139.5t23.5 -180t-23.5 -180t-64.5 -139.5t-100 -89.5t-129 -32q-72 0 -130 32t-100 89.5t-64.5 139t-22.5 180.5z" />
			<glyph unicode="p" horiz-adv-x="1146"
				   d="M141 -379q0 -29 21.5 -49.5t50.5 -20.5t48.5 20.5t19.5 49.5v531q41 -49 76.5 -82t72.5 -52.5t77 -27.5t93 -8q102 0 187 43t146.5 118.5t96.5 181t35 230.5q0 121 -34 222.5t-95.5 175t-145 115.5t-184.5 42q-53 0 -95 -8t-79 -28.5t-72.5 -55.5t-78.5 -86v102 q0 31 -21.5 53.5t-52.5 22.5q-29 0 -47.5 -22.5t-18.5 -51.5v-1415zM270 526q0 111 16.5 189t45.5 127q41 66 114.5 105.5t151.5 39.5q72 0 131 -30.5t101 -87t65 -137.5t23 -179q0 -100 -24 -182t-67 -140.5t-103 -90t-134 -31.5q-76 0 -140.5 34.5t-109.5 100.5 q-39 55 -54.5 119.5t-15.5 162.5z" />
			<glyph unicode="q" horiz-adv-x="1148"
				   d="M82 545q0 -119 35 -221.5t97 -178t146 -118.5t183 -43q53 0 95 8t80 28.5t73.5 54.5t78.5 85v-537q0 -29 19.5 -50.5t48.5 -21.5t49.5 21.5t20.5 50.5v1417q0 29 -19.5 49.5t-48.5 20.5q-31 0 -52.5 -22.5t-21.5 -53.5v-94q-43 49 -78.5 82t-71.5 52.5t-76 27.5t-91 8 q-100 0 -185 -43t-147.5 -119t-98.5 -179t-36 -224zM236 553q0 199 84 315.5t231 116.5q78 0 146.5 -37t111.5 -102q18 -29 31.5 -60.5t21.5 -69.5t11.5 -86t3.5 -112q0 -45 -3.5 -78.5t-9.5 -62.5t-17 -55.5t-28 -55.5q-41 -74 -112.5 -115.5t-157.5 -41.5 q-72 0 -129.5 31.5t-98 90t-63 140.5t-22.5 182z" />
			<glyph unicode="r" horiz-adv-x="522"
				   d="M141 49q0 -29 21.5 -49t52.5 -20q27 0 45.5 20t18.5 49l4 502q0 92 11 158.5t35.5 113.5t63.5 79t96 52q45 16 61.5 31.5t16.5 48.5t-25.5 55.5t-60.5 22.5q-33 0 -69 -20q-41 -27 -70 -65t-66 -116l9 117q2 31 -19.5 53.5t-50.5 22.5q-31 0 -52.5 -20.5t-21.5 -49.5 v-985z" />
			<glyph unicode="s" horiz-adv-x="913"
				   d="M51 193q0 -29 34 -65t97 -71q72 -41 132.5 -57t131.5 -16q86 0 159 24.5t126 66.5t84 100t31 126q0 57 -19.5 103.5t-63.5 87t-116 77.5t-176 78q-41 14 -69.5 26.5t-48 22t-35 18.5t-29.5 21q-29 23 -37 38t-8 50q0 72 58 115t153 43q113 0 229 -84q25 -18 39 -24.5 t31 -6.5q29 0 47 19.5t18 48.5q0 59 -94 106q-139 70 -268 70q-78 0 -144.5 -22.5t-114.5 -62.5t-76 -95.5t-28 -118.5q0 -47 14.5 -84t50.5 -69.5t97.5 -65.5t157.5 -70l100 -39q98 -39 142 -84t44 -98q0 -41 -18 -74.5t-51 -60.5t-78 -41t-96 -14q-141 0 -246 98 q-41 37 -56.5 47t-37.5 10q-25 0 -45.5 -22.5t-20.5 -50.5z" />
			<glyph unicode="t" horiz-adv-x="475"
				   d="M16 1030q0 -27 19.5 -43t46.5 -16h94v-920q0 -29 20.5 -49t49.5 -20t49 20.5t20 50.5v918h93q29 0 48 15t19 42t-19.5 45.5t-45.5 18.5h-95v264q0 31 -21.5 53.5t-49.5 22.5q-29 0 -49.5 -23t-20.5 -55v-262h-90q-29 0 -48.5 -17.5t-19.5 -44.5z" />
			<glyph unicode="u" horiz-adv-x="1118"
				   d="M141 401q0 -59 5.5 -104t17.5 -81t32.5 -65.5t49.5 -56.5q118 -112 312 -112h3q195 0 311 112q31 29 50.5 58.5t32 65.5t17.5 80t5 103v635q0 29 -21.5 51.5t-52.5 22.5q-27 0 -46 -22.5t-19 -51.5v-637q0 -84 -16.5 -134t-55.5 -85t-92 -54.5t-113 -19.5 q-61 0 -117.5 19.5t-91.5 54.5q-39 37 -55 87t-16 132v637q0 29 -18.5 51.5t-47.5 22.5q-31 0 -52.5 -22.5t-21.5 -51.5v-635z" />
			<glyph unicode="v" horiz-adv-x="866"
				   d="M23 1036q0 -14 2 -20l337 -983q18 -51 72 -51q51 0 70 51l338 983q4 12 4 20q0 29 -21.5 50.5t-52.5 21.5q-43 0 -61 -53l-275 -819l-278 819q-18 53 -66 53q-29 0 -49 -21.5t-20 -50.5z" />
			<glyph unicode="w" horiz-adv-x="1548"
				   d="M23 1036q0 -14 2 -20l321 -957q16 -49 31.5 -64t52.5 -15q57 0 82 75l260 828l264 -828q25 -75 81 -75h1q35 0 51.5 15t32.5 64l322 957q2 6 2 20q0 29 -20.5 51.5t-49.5 22.5q-25 0 -45 -13.5t-27 -35.5l-268 -848l-262 823q-14 41 -31.5 58.5t-52.5 17.5q-55 0 -78 -76 l-260 -823l-268 848q-6 23 -26.5 36t-47.5 13q-29 0 -48 -22.5t-19 -51.5z" />
			<glyph unicode="x" horiz-adv-x="952"
				   d="M25 51q0 -29 19 -48t48 -19q37 0 66 41l317 448l320 -448q31 -41 67 -41q29 0 47.5 19.5t18.5 47.5q0 27 -17 49l-348 484l309 415q12 18 13 43q0 29 -19.5 49.5t-48.5 20.5q-31 0 -67 -47l-275 -375l-274 375q-33 47 -66 47q-29 0 -49 -20.5t-20 -49.5q0 -23 14 -43 l309 -415l-350 -484q-14 -20 -14 -49z" />
			<glyph unicode="y" horiz-adv-x="866"
				   d="M20 1038q0 -10 5 -22l335 -993l-137 -377q-6 -12 -6 -29q0 -27 21.5 -45t50.5 -18q27 0 43 14t28 51l471 1399q4 8 5 22q0 31 -19.5 50.5t-50.5 19.5q-51 0 -72 -61l-260 -824l-274 834q-8 23 -27.5 37t-42.5 14q-29 0 -49.5 -21.5t-20.5 -50.5z" />
			<glyph unicode="z" horiz-adv-x="903"
				   d="M61 66q0 -29 19.5 -47.5t54.5 -18.5h649q33 0 55.5 18.5t22.5 44.5q0 29 -22.5 47.5t-55.5 18.5h-532l571 852q6 10 11.5 23.5t5.5 23.5q0 63 -78 64h-604q-31 0 -52.5 -18.5t-21.5 -47.5t21.5 -46t54.5 -17h489l-571 -850q-6 -10 -11.5 -22.5t-5.5 -24.5z" />
			<glyph unicode="{" horiz-adv-x="661"
				   d="M109 737q12 -2 23 -4t24 -8q78 -35 77 -133v-690q0 -59 39 -93t117 -34h115v63h-23q-39 0 -62.5 5t-36.5 19.5t-17.5 39t-4.5 63.5v617q0 63 -37.5 106t-97.5 49q59 6 97 49t38 107v616q0 39 5.5 63.5t18.5 39t36.5 19.5t60.5 5h23v64h-115q-78 0 -117 -34t-39 -93v-690 q0 -63 -34.5 -102.5t-89.5 -43.5z" />
			<glyph unicode="|" horiz-adv-x="354" d="M109 0h110v1475h-110v-1475z" />
			<glyph unicode="}" horiz-adv-x="661"
				   d="M109 -162v-63h114q78 0 116 33.5t38 93.5v690q0 98 80 133q10 6 22.5 8t24.5 4q-55 4 -91 43t-36 103v690q0 59 -38 93t-116 34h-114v-64h22q37 0 60.5 -5t37 -19.5t18.5 -39t5 -63.5v-616q0 -63 37 -106.5t96 -49.5q-59 -6 -96 -49t-37 -106v-617q0 -39 -5 -63.5 t-18.5 -39t-37 -19.5t-60.5 -5h-22z" />
			<glyph unicode="~" horiz-adv-x="786"
				   d="M51 1647q0 -31 24.5 -54.5t59.5 -23.5h469q35 0 59.5 22.5t24.5 53.5q0 35 -23.5 58t-58.5 23h-473q-35 0 -58.5 -22.5t-23.5 -56.5z" />
			<glyph unicode="&#xa1;" horiz-adv-x="407"
				   d="M111 1419q0 -39 27.5 -65.5t62.5 -26.5q41 0 68.5 26.5t27.5 65.5t-27.5 64.5t-66.5 25.5q-37 0 -64.5 -25.5t-27.5 -64.5zM135 43q0 -29 19.5 -49.5t48.5 -20.5t49 20.5t20 51.5v954q0 29 -20.5 47.5t-50.5 18.5q-27 0 -46.5 -20.5t-19.5 -49.5v-952z" />
			<glyph unicode="&#xa2;" horiz-adv-x="905"
				   d="M82 545q0 -115 32.5 -215.5t92.5 -177.5q25 -33 49.5 -56.5t53 -41t65.5 -32t88 -26.5v-129q0 -16 10 -27.5t25 -11.5q16 0 26.5 11t10.5 28v121q98 0 156.5 11t103.5 40q43 33 43 74q0 29 -19.5 48t-50.5 19q-4 0 -6 -2t-6 -2l-31 -14l-41 -17l-39 -16l-110 -4l2 852 q16 2 30.5 3t24.5 1q23 0 56.5 -9t60.5 -26l28 -16q16 -8 35 -8q29 0 50.5 22.5t21.5 50.5q0 39 -53 68q-27 14 -50.5 23.5t-51 15.5t-61.5 8t-79 2h-12v129q0 16 -10.5 27.5t-26.5 11.5q-14 0 -24.5 -10t-10.5 -23v-147q-43 -12 -74 -24.5t-56.5 -27t-47 -32t-45.5 -41.5 q-78 -78 -119 -189.5t-41 -240.5zM240 561q0 92 26.5 178t69.5 140q23 27 49.5 44t79.5 40v-822q-57 25 -86 46.5t-51 56.5q-41 59 -64.5 145t-23.5 172z" />
			<glyph unicode="&#xa3;" horiz-adv-x="1206"
				   d="M66 737q0 -25 21.5 -43t49.5 -18h240q10 -49 15 -80t5 -57q0 -41 -12 -87t-33.5 -92.5t-51.5 -89.5t-67 -80l-57 -57q-35 -35 -35 -59q0 -31 21.5 -52.5t50.5 -21.5h858q29 0 49.5 18.5t20.5 47.5t-21.5 47t-52.5 18h-731q43 45 71.5 80t49 66.5t35 63.5t24.5 69 q10 33 15.5 63.5t5.5 65.5q0 27 -5.5 57.5t-15.5 81.5h215q31 0 53.5 18.5t22.5 46.5q0 29 -22.5 46.5t-55.5 17.5h-254l-26 57l-46 90q-43 82 -43 174q0 111 77 178.5t200 67.5q111 0 197 -58.5t120 -156.5q18 -55 27.5 -69.5t34.5 -20.5q4 -2 18 -2q29 0 49.5 19.5 t20.5 52.5q0 25 -15.5 67.5t-41.5 83.5q-63 104 -169 162.5t-235 58.5q-94 0 -173 -27.5t-136.5 -76.5t-90 -116.5t-32.5 -147.5q0 -35 4 -65.5t14.5 -63.5t27.5 -72t46 -88l29 -51h-193q-29 0 -51 -18.5t-22 -47.5z" />
			<glyph unicode="&#xa4;" horiz-adv-x="1423"
				   d="M82 645q0 -23 16 -38t39 -15h117q18 -139 71.5 -252t136.5 -192.5t193.5 -123.5t239.5 -44q115 0 219.5 31.5t177.5 90.5q49 37 49 80q0 31 -19 50.5t-48 19.5q-12 0 -26.5 -5t-30.5 -22q-55 -41 -90 -60.5t-85 -33.5q-61 -20 -143 -20q-98 0 -181 33.5t-147.5 96 t-107.5 151.5t-60 200h584q23 0 40 16.5t17 38.5q0 23 -17 38t-42 15h-592v35v43h678q23 0 38 17.5t15 40.5t-16 38t-39 15h-663q18 109 59 197t102.5 150t139 96t167.5 34q61 0 125 -19.5t113 -54.5q10 -8 25.5 -19t31.5 -28q23 -23 38.5 -31t31.5 -8q27 0 47.5 20.5 t20.5 49.5q0 70 -123 141q-133 80 -307 80q-123 0 -228.5 -43t-185.5 -123t-133.5 -192.5t-73.5 -249.5h-117q-25 0 -41 -15.5t-16 -37.5q0 -23 16.5 -40.5t38.5 -17.5h111q-2 -12 -2 -26v-25v-27h-107q-23 0 -40 -16t-17 -39z" />
			<glyph unicode="&#xa5;" horiz-adv-x="1148"
				   d="M82 1427q0 -20 10 -36l330 -564h-258q-20 0 -35.5 -12t-15.5 -29q0 -18 14 -32.5t37 -14.5l307 2l27 -49l4 -39l-338 -2q-23 0 -37 -12t-14 -29q0 -20 14 -32.5t37 -12.5l336 2l4 -512q0 -35 18.5 -54t52.5 -19q33 0 52.5 19t19.5 54l-4 512l340 2q18 0 31.5 10.5 t13.5 26.5q0 20 -13.5 34.5t-29.5 14.5l-342 -2l2 39l23 51h315q18 0 31.5 12.5t13.5 28.5q0 20 -13.5 33.5t-31.5 13.5l-256 -2l332 562q8 14 8 36q0 29 -18.5 46.5t-47.5 17.5q-18 0 -36.5 -11.5t-28.5 -27.5l-361 -612l-360 612q-10 16 -28.5 27.5t-39.5 11.5 q-29 0 -47 -17.5t-18 -46.5z" />
			<glyph unicode="&#xa7;" horiz-adv-x="1163"
				   d="M72 580q0 -51 12 -101.5t35 -91.5q33 -53 84 -96t145 -90l357 -183q66 -35 94 -73.5t28 -96.5q0 -90 -70.5 -133t-217.5 -43q-72 0 -120 8.5t-77 31t-43 60.5t-18 97q-4 41 -18.5 57.5t-45.5 16.5q-80 0 -80 -95q0 -57 23.5 -113.5t68.5 -99.5q55 -53 124 -75.5 t175 -22.5q76 0 132.5 7t99.5 23.5t77.5 43.5t67.5 67q35 41 52.5 89.5t17.5 97.5q0 37 -7 67.5t-24.5 60.5t-45.5 59.5t-69 66.5q72 41 121 80t80 79.5t44 87t13 101.5q0 225 -268 362l-377 191q-29 14 -60.5 38.5t-47.5 45.5q-12 16 -20.5 43t-8.5 53q0 86 72 135t201 49 q47 0 107 -10t99 -20q33 -12 56.5 -38t29.5 -61q2 -16 7 -55q8 -84 73 -84q33 0 55.5 20.5t22.5 49.5q0 53 -18.5 103t-51 92t-77.5 71t-97 41q-86 18 -190 18q-213 0 -323.5 -84t-110.5 -243q0 -41 6 -72t21.5 -58.5t41 -55t66.5 -60.5q-63 -49 -106.5 -92t-69 -84 t-36.5 -86t-11 -96zM190 569q0 59 39 129q16 29 33 51.5t37 43t47 40t66 41.5l338 -172q39 -20 67.5 -37.5t50.5 -33.5q35 -29 59.5 -79t24.5 -97q0 -68 -45 -123q-18 -25 -37.5 -42.5t-45 -33.5t-60.5 -31.5t-86 -36.5l-277 144q-111 57 -161 114.5t-50 122.5z" />
			<glyph unicode="&#xa8;" horiz-adv-x="452"
				   d="M-59 1278q0 -39 27.5 -67.5t68.5 -28.5t68.5 28.5t27.5 67.5q0 41 -27.5 68.5t-66.5 27.5q-41 0 -69.5 -27.5t-28.5 -68.5zM319 1278q0 -41 27 -68.5t68 -27.5t69.5 27.5t28.5 66.5q0 41 -29.5 69.5t-70.5 28.5q-39 0 -66 -27.5t-27 -68.5z" />
			<glyph unicode="&#xa9;" horiz-adv-x="1908"
				   d="M119 739q0 -158 60.5 -297t163.5 -242.5t242.5 -164t297.5 -60.5t297 60.5t242.5 164t164 243t60.5 296.5q0 158 -60.5 297.5t-164 242.5t-243 163.5t-296.5 60.5q-158 0 -297.5 -60.5t-242.5 -163.5t-163.5 -242.5t-60.5 -297.5zM209 739q0 135 51 260t148 224 q98 100 222 149t253 49t253 -49t222 -149.5t148 -226.5t50 -259q0 -131 -50 -257t-148 -226q-98 -98 -222 -148.5t-253 -50.5t-253 50.5t-222 148.5q-96 98 -147.5 223t-51.5 262zM401.5 654.5q18.5 -128.5 87 -226.5t180 -156.5t249.5 -54.5q188 6 329 125l-53 74 q-14 -12 -27.5 -21.5t-27.5 -19.5q-63 -39 -133 -54.5t-138.5 -9.5t-131 36t-113.5 79q-72 72 -103 169t-14 208q14 88 60 159.5t112.5 117.5t148.5 64.5t172 2.5q111 -20 197 -98l53 73q-104 92 -245 117q-96 16 -186.5 1t-165 -58t-132 -110.5t-88.5 -153.5 q-49 -135 -30.5 -263.5z" />
			<glyph unicode="&#xaa;" horiz-adv-x="983"
				   d="M115 1073q16 -92 66 -155.5t128 -96.5q59 -25 117 -24q59 0 109.5 19.5t89.5 55t59 84.5q6 6 6 17v-160h111v662h-109v-150l-6 12l-10 19q-59 109 -182 135q-63 12 -126 -1t-114 -50t-88 -94.5t-51 -131.5q-12 -72 0 -141zM131 610h670v101h-670v-101zM221 1122v25 q0 10 1 22.5t3 22.5q8 39 24.5 73.5t43.5 63.5q39 41 88 58.5t99 12.5t95.5 -32t75.5 -76q10 -16 21 -39q16 -39 20 -78.5t-4 -80.5q-10 -51 -36.5 -90t-61.5 -66q-59 -43 -131 -43q-70 0 -131 41q-39 27 -65.5 67.5t-37.5 94.5q-4 12 -4 24z" />
			<glyph unicode="&#xab;" horiz-adv-x="780"
				   d="M82 547q0 -10 29 -62l170 -309q10 -20 29.5 -33.5t35.5 -13.5q25 0 44.5 18.5t19.5 40.5q0 18 -19 50l-182 305l184 307q14 25 15 45q0 59 -58 59q-45 0 -67 -43l-183 -319q-18 -31 -18 -45zM373 547q0 -8 28 -62l170 -309q10 -18 28.5 -32.5t35.5 -14.5q25 0 45 18.5 t20 40.5q0 8 -6 21.5t-12 28.5l-184 305l186 307q10 25 10 47q0 57 -55 57q-45 0 -68 -43l-182 -319q-10 -16 -13 -27.5t-3 -17.5z" />
			<glyph unicode="&#xac;" horiz-adv-x="1245" d="M109 737h835v-295h98v406h-933v-111z" />
			<glyph unicode="&#xad;" horiz-adv-x="710"
				   d="M82 537q0 -29 17 -47.5t40 -18.5h424q27 0 46.5 18.5t19.5 47.5t-19.5 47t-46.5 18h-424q-23 0 -40 -18.5t-17 -46.5z" />
			<glyph unicode="&#xae;" horiz-adv-x="1908"
				   d="M119 739q0 -158 60.5 -297t163.5 -242.5t242.5 -164t297.5 -60.5t297 60.5t242.5 164t164 243t60.5 296.5q0 158 -60.5 297.5t-164 242.5t-243 163.5t-296.5 60.5q-158 0 -297.5 -60.5t-242.5 -163.5t-163.5 -242.5t-60.5 -297.5zM209 739q0 135 51 260t148 224 q98 100 222 149t253 49t253 -49t222 -149.5t148 -226.5t50 -259q0 -131 -50 -257t-148 -226q-98 -98 -222 -148.5t-253 -50.5t-253 50.5t-222 148.5q-96 98 -147.5 223t-51.5 262zM655 254h105v500l336 -500h123l-318 463h19q8 0 18 2q123 14 186.5 100t40.5 217 q-14 92 -84 148q-39 33 -85 46t-132 13h-209v-989zM760 782v373h100q102 0 155.5 -49t51.5 -139q-2 -88 -57.5 -136.5t-165.5 -48.5h-84z" />
			<glyph unicode="&#xaf;" horiz-adv-x="577"
				   d="M2 1268q0 -29 21.5 -48.5t54.5 -19.5l426 -2q33 0 55.5 19.5t22.5 48.5q0 31 -21.5 52t-52.5 21l-432 2q-31 0 -52.5 -21.5t-21.5 -51.5z" />
			<glyph unicode="&#xb1;" horiz-adv-x="1216"
				   d="M90 39h946v139h-946v-139zM90 539h404v-250h139v250h403v139h-403v250h-139v-250h-404v-139z" />
			<glyph unicode="&#xb4;" horiz-adv-x="444"
				   d="M4 1237q0 -23 24.5 -41t55.5 -18q8 0 20 4l295 116q23 8 35 29t12 47q0 23 -22.5 40.5t-52.5 17.5q-6 0 -11.5 -1t-11.5 -4l-295 -112q-23 -8 -36 -28.5t-13 -49.5z" />
			<glyph unicode="&#xb5;" horiz-adv-x="1275"
				   d="M150 -285q4 -80 20 -108q23 -37 68 -35q41 0 63.5 22.5t22.5 63.5q0 29 -66 188q-68 162 -65 289q0 20 1 33.5t1 24.5q25 -106 81 -158q59 -53 150 -53q121 4 199 86q78 84 125 266q4 -182 53 -264q57 -90 155 -88q88 0 136 61q49 63 49 178v27q-2 8 -2 18h-43v-28 q0 -84 -23 -125q-25 -43 -65 -43q-41 2 -60 43q-18 43 -18 135v672h-189v-267q0 -252 -77 -420q-78 -166 -195 -163q-76 0 -102 49q-29 49 -29 194v607h-188v-502q0 -31 1 -79t3 -115.5t2 -119.5v-88q0 -43 -1 -88t-3 -94q-2 -51 -3 -79.5t-1 -39.5z" />
			<glyph unicode="&#xb6;" horiz-adv-x="1302"
				   d="M109 1092q0 -80 29.5 -149t80.5 -121t121 -81.5t147 -29.5h148v-711h90v1305h-90v-506h-148q-59 0 -110 22.5t-91 61.5t-63.5 91t-23.5 113q-2 61 20.5 117t62.5 95.5t93 63t112 23.5h609v89h-609q-78 0 -147.5 -30t-120.5 -82t-80.5 -122t-29.5 -149zM868 0h90v1305h-90 v-1305z" />
			<glyph unicode="&#xb7;" horiz-adv-x="425"
				   d="M121 535q0 -39 26.5 -66t65.5 -27t65.5 26t26.5 60q0 41 -26.5 69t-67.5 28q-37 0 -63.5 -26.5t-26.5 -63.5z" />
			<glyph unicode="&#xb8;" horiz-adv-x="309"
				   d="M43 -233q0 -29 11.5 -45.5t31.5 -16.5q25 0 44.5 11.5t27.5 27.5l153 319h-127l-118 -202q-23 -37 -23 -94z" />
			<glyph unicode="&#xba;" horiz-adv-x="985"
				   d="M109 1151q0 -37 6 -70q20 -111 93 -184.5t177 -95.5q70 -16 141 0q104 23 177 96.5t94 183.5q12 68 0 138q-16 92 -69.5 157.5t-131.5 100.5q-80 35 -159 30.5t-145.5 -40t-113.5 -99t-63 -149.5q-6 -35 -6 -68zM121 610h670v101h-670v-101zM219 1151q0 106 66 178 q39 43 91 61.5t104 13.5t99.5 -35t77.5 -81q45 -82 31 -186q-12 -76 -61 -131q-39 -43 -91.5 -61.5t-104.5 -12.5t-99 35t-78 80q-35 59 -35 139z" />
			<glyph unicode="&#xbb;" horiz-adv-x="780"
				   d="M82 897q0 -23 18 -49l183 -307l-185 -305q-14 -25 -14 -48q0 -59 57 -59q18 0 38 11.5t30 29.5l180 322q20 37 21 47q0 8 -31 61l-168 305q-12 23 -31.5 36t-36.5 13q-23 0 -42 -17t-19 -40zM373 895q0 -20 14 -47l186 -307l-186 -305q-12 -23 -12 -48q0 -59 55 -59 q43 0 68 41l182 322q18 33 18 47q0 8 -30 61l-170 305q-12 23 -29.5 36t-34.5 13q-23 0 -42 -18t-19 -41z" />
			<glyph unicode="&#xbf;" horiz-adv-x="931"
				   d="M51 272q0 -61 31 -115.5t83 -96.5t121.5 -65.5t149.5 -23.5q92 0 169 27t132.5 76t85 118.5t29.5 153.5q0 172 -123 287q-25 20 -47.5 36.5t-48 28t-57 20.5t-76.5 17v264q0 27 -18.5 46.5t-47.5 19.5q-31 2 -51.5 -17.5t-20.5 -48.5v-294v-37q0 -10 6.5 -18.5 t14.5 -18.5q16 -16 29.5 -21.5t50.5 -9.5q236 -35 235 -262q0 -104 -71.5 -166.5t-188.5 -62.5q-207 0 -243 174q-14 72 -70 71q-33 0 -53.5 -23.5t-20.5 -58.5zM344 1421q0 -39 25.5 -64.5t62.5 -25.5q39 0 65.5 25.5t26.5 64.5q0 37 -25.5 61.5t-64.5 24.5t-64.5 -24.5 t-25.5 -61.5z" />
			<glyph unicode="&#xc0;" horiz-adv-x="1253"
				   d="M27 45q0 -29 17 -47t46 -18q47 0 68 49l114 299h709l115 -299q20 -49 69 -49q27 0 44.5 18t17.5 47q0 23 -6 41l-488 1313q-10 29 -20.5 46t-22.5 27.5t-28.5 14.5t-40.5 4q-39 0 -58.5 -19.5t-40.5 -72.5l-487 -1313q-4 -10 -6 -20.5t-2 -20.5zM311 449l316 860 l313 -860h-629zM406 1827q0 -56 47 -74l295 -116q16 -4 20 -4q33 0 55.5 17t22.5 40q0 29 -13 49.5t-36 28.5l-295 114q-12 4 -18 5q-33 0 -55.5 -18.5t-22.5 -41.5z" />
			<glyph unicode="&#xc1;" horiz-adv-x="1253"
				   d="M27 45q0 -29 17 -47t46 -18q47 0 68 49l114 299h709l115 -299q20 -49 69 -49q27 0 44.5 18t17.5 47q0 23 -6 41l-488 1313q-10 29 -20.5 46t-22.5 27.5t-28.5 14.5t-40.5 4q-39 0 -58.5 -19.5t-40.5 -72.5l-487 -1313q-4 -10 -6 -20.5t-2 -20.5zM311 449l316 860 l313 -860h-629zM407 1692q0 -23 24.5 -41t55.5 -18q8 0 20 4l295 116q23 8 35 29t12 47q0 23 -22.5 40.5t-52.5 17.5q-6 0 -11.5 -1t-11.5 -4l-295 -112q-23 -8 -36 -28.5t-13 -49.5z" />
			<glyph unicode="&#xc2;" horiz-adv-x="1253"
				   d="M27 45q0 -29 17 -47t46 -18q47 0 68 49l114 299h709l115 -299q20 -49 69 -49q27 0 44.5 18t17.5 47q0 23 -6 41l-488 1313q-10 29 -20.5 46t-22.5 27.5t-28.5 14.5t-40.5 4q-39 0 -58.5 -19.5t-40.5 -72.5l-487 -1313q-4 -10 -6 -20.5t-2 -20.5zM311 449l316 860 l313 -860h-629zM313 1694q0 -25 22.5 -42t55.5 -17q14 0 22 4l211 84l207 -84q12 -6 25 -6q33 0 57.5 18t24.5 45q0 61 -45 78l-226 84q-37 14 -43 14t-41 -14l-223 -88q-23 -8 -35 -28.5t-12 -47.5z" />
			<glyph unicode="&#xc3;" horiz-adv-x="1253"
				   d="M27 45q0 -29 17 -47t46 -18q47 0 68 49l114 299h709l115 -299q20 -49 69 -49q27 0 44.5 18t17.5 47q0 23 -6 41l-488 1313q-10 29 -20.5 46t-22.5 27.5t-28.5 14.5t-40.5 4q-39 0 -58.5 -19.5t-40.5 -72.5l-487 -1313q-4 -10 -6 -20.5t-2 -20.5zM311 449l316 860 l313 -860h-629zM336 1723q0 -29 21.5 -48.5t54.5 -19.5l426 -2q33 0 55 19.5t22 48.5q0 31 -21.5 52t-53.5 21l-430 2q-31 0 -52.5 -21.5t-21.5 -51.5z" />
			<glyph unicode="&#xc4;" horiz-adv-x="1253"
				   d="M27 45q0 -29 17 -47t46 -18q47 0 68 49l114 299h709l115 -299q20 -49 69 -49q27 0 44.5 18t17.5 47q0 23 -6 41l-488 1313q-10 29 -20.5 46t-22.5 27.5t-28.5 14.5t-40.5 4q-39 0 -58.5 -19.5t-40.5 -72.5l-487 -1313q-4 -10 -6 -20.5t-2 -20.5zM309 1505q0 -41 29 -67.5 t70 -26.5t67.5 26.5t26.5 65.5q0 41 -26.5 70t-67.5 29t-70 -28t-29 -69zM311 449l316 860l313 -860h-629zM754 1503q0 -41 26.5 -66.5t65.5 -25.5q41 0 70.5 26.5t29.5 67.5t-28.5 69t-69.5 28t-67.5 -29t-26.5 -70z" />
			<glyph unicode="&#xc5;" horiz-adv-x="1253"
				   d="M27 45q0 -29 17 -47t46 -18q47 0 68 49l114 299h709l115 -299q20 -49 69 -49q27 0 44.5 18t17.5 47q0 23 -6 41l-488 1313q-16 45 -25.5 58t-33.5 24q55 47 87 90t32 71q0 72 -48.5 121t-115.5 49q-70 0 -118 -50t-48 -122q0 -61 115 -159q-23 -12 -31 -24.5t-25 -57.5 l-487 -1313q-4 -10 -6 -20.5t-2 -20.5zM311 449l316 860l313 -860h-629zM549 1645q0 35 22.5 57t57.5 22t58.5 -22.5t23.5 -56.5q0 -33 -24.5 -57.5t-59.5 -24.5q-33 0 -55.5 24.5t-22.5 57.5z" />
			<glyph unicode="&#xc6;" horiz-adv-x="1529"
				   d="M8 49q0 -29 17.5 -48t46.5 -19q43 0 65 45l156 303h483v-252q0 -35 21.5 -56.5t54.5 -21.5h530q27 0 46.5 18.5t19.5 47.5q0 27 -18.5 45t-45.5 18h-466v543h421q27 0 45.5 18.5t18.5 44.5q0 27 -17.5 45.5t-39.5 18.5h-424v547h444q27 0 45.5 19t18.5 48 q0 27 -18.5 45.5t-45.5 18.5h-592q-33 0 -49 -13.5t-39 -58.5l-668 -1323q-10 -12 -10 -33zM352 453l428 847v-847h-428z" />
			<glyph unicode="&#xc7;" horiz-adv-x="1208"
				   d="M82 727q0 -168 47 -305t132 -235.5t205 -152.5t265 -54q115 0 219.5 31.5t177.5 90.5q49 37 50 80q0 31 -19.5 50.5t-48.5 19.5q-12 0 -26.5 -5t-30.5 -22q-55 -41 -90 -60.5t-84 -33.5q-61 -20 -144 -20q-115 0 -208 45t-158.5 125.5t-102.5 196.5t-37 257q0 139 36 256 t99.5 200t151.5 129t195 46q61 0 124.5 -19.5t112.5 -54.5q10 -8 25.5 -19t32.5 -28q23 -23 38 -31t31 -8q27 0 47.5 20.5t20.5 49.5q0 70 -123 141q-133 80 -307 80q-141 0 -258 -56.5t-200 -157.5t-128 -242.5t-45 -313.5zM561 -215q0 -49 45 -49q20 0 36.5 8t29.5 20 l151 197h-125l-118 -125q-18 -16 -19 -51z" />
			<glyph unicode="&#xc8;" horiz-adv-x="899"
				   d="M141 80q0 -37 19.5 -58.5t54.5 -21.5h535q29 0 48 18.5t19 47.5t-19.5 47t-47.5 18h-465v541h424q29 0 47 19.5t18 45.5q0 27 -19.5 45.5t-47.5 18.5h-418v545h438q29 0 48.5 18t19.5 47t-18.5 47.5t-47.5 18.5h-512q-33 0 -54.5 -21.5t-21.5 -54.5v-1321zM227 1827 q0 -56 47 -74l295 -116q16 -4 20 -4q33 0 55.5 17t22.5 40q0 29 -13 49.5t-36 28.5l-295 114q-12 4 -18 5q-33 0 -55.5 -18.5t-22.5 -41.5z" />
			<glyph unicode="&#xc9;" horiz-adv-x="899"
				   d="M141 80q0 -37 19.5 -58.5t54.5 -21.5h535q29 0 48 18.5t19 47.5t-19.5 47t-47.5 18h-465v541h424q29 0 47 19.5t18 45.5q0 27 -19.5 45.5t-47.5 18.5h-418v545h438q29 0 48.5 18t19.5 47t-18.5 47.5t-47.5 18.5h-512q-33 0 -54.5 -21.5t-21.5 -54.5v-1321zM231 1692 q0 -23 24.5 -41t55.5 -18q8 0 20 4l295 116q23 8 35 29t12 47q0 23 -22.5 40.5t-52.5 17.5q-6 0 -11.5 -1t-11.5 -4l-295 -112q-23 -8 -36 -28.5t-13 -49.5z" />
			<glyph unicode="&#xca;" horiz-adv-x="899"
				   d="M141 80q0 -37 19.5 -58.5t54.5 -21.5h535q29 0 48 18.5t19 47.5t-19.5 47t-47.5 18h-465v541h424q29 0 47 19.5t18 45.5q0 27 -19.5 45.5t-47.5 18.5h-418v545h438q29 0 48.5 18t19.5 47t-18.5 47.5t-47.5 18.5h-512q-33 0 -54.5 -21.5t-21.5 -54.5v-1321zM141 1694 q0 -25 22.5 -42t55.5 -17q14 0 22 4l211 84l207 -84q12 -6 25 -6q33 0 57.5 18t24.5 45q0 61 -45 78l-226 84q-37 14 -43 14t-41 -14l-223 -88q-23 -8 -35 -28.5t-12 -47.5z" />
			<glyph unicode="&#xcb;" horiz-adv-x="899"
				   d="M141 80q0 -37 19.5 -58.5t54.5 -21.5h535q29 0 48 18.5t19 47.5t-19.5 47t-47.5 18h-465v541h424q29 0 47 19.5t18 45.5q0 27 -19.5 45.5t-47.5 18.5h-418v545h438q29 0 48.5 18t19.5 47t-18.5 47.5t-47.5 18.5h-512q-33 0 -54.5 -21.5t-21.5 -54.5v-1321zM164 1733 q0 -39 27.5 -67.5t68.5 -28.5t68.5 28.5t27.5 67.5q0 41 -27.5 68.5t-66.5 27.5q-41 0 -69.5 -27.5t-28.5 -68.5zM542 1733q0 -41 27 -68.5t68 -27.5t69.5 27.5t28.5 66.5q0 41 -29.5 69.5t-70.5 28.5q-39 0 -66 -27.5t-27 -68.5z" />
			<glyph unicode="&#xcc;" horiz-adv-x="421"
				   d="M141 49q0 -29 20.5 -49t51.5 -20q29 0 48.5 20t19.5 49v1370q0 29 -19.5 51.5t-48.5 22.5q-31 0 -51.5 -22.5t-20.5 -51.5v-1370zM141 1827q0 -56 47 -74l295 -116q16 -4 20 -4q33 0 55.5 17t22.5 40q0 29 -13 49.5t-36 28.5l-295 114q-12 4 -18 5q-33 0 -55.5 -18.5 t-22.5 -41.5z" />
			<glyph unicode="&#xcd;" horiz-adv-x="421"
				   d="M141 49q0 -29 20.5 -49t51.5 -20q29 0 48.5 20t19.5 49v1370q0 29 -19.5 51.5t-48.5 22.5q-31 0 -51.5 -22.5t-20.5 -51.5v-1370zM141 1692q0 -23 24.5 -41t55.5 -18q8 0 20 4l295 116q23 8 35 29t12 47q0 23 -22.5 40.5t-52.5 17.5q-6 0 -11.5 -1t-11.5 -4l-295 -112 q-23 -8 -36 -28.5t-13 -49.5z" />
			<glyph unicode="&#xce;" horiz-adv-x="421"
				   d="M141 49q0 -29 20.5 -49t51.5 -20q29 0 48.5 20t19.5 49v1370q0 29 -19.5 51.5t-48.5 22.5q-31 0 -51.5 -22.5t-20.5 -51.5v-1370zM141 1694q0 -25 22.5 -42t55.5 -17q14 0 22 4l211 84l207 -84q12 -6 25 -6q33 0 57.5 18t24.5 45q0 61 -45 78l-226 84q-37 14 -43 14 t-41 -14l-223 -88q-23 -8 -35 -28.5t-12 -47.5z" />
			<glyph unicode="&#xcf;" horiz-adv-x="421"
				   d="M141 49q0 -29 20.5 -49t51.5 -20q29 0 48.5 20t19.5 49v1370q0 29 -19.5 51.5t-48.5 22.5q-31 0 -51.5 -22.5t-20.5 -51.5v-1370zM142 1733q0 -39 27.5 -67.5t68.5 -28.5t68.5 28.5t27.5 67.5q0 41 -27.5 68.5t-66.5 27.5q-41 0 -69.5 -27.5t-28.5 -68.5zM520 1733 q0 -41 27 -68.5t68 -27.5t69.5 27.5t28.5 66.5q0 41 -29.5 69.5t-70.5 28.5q-39 0 -66 -27.5t-27 -68.5z" />
			<glyph unicode="&#xd1;" horiz-adv-x="1376"
				   d="M141 55q0 -29 21.5 -50t52.5 -21q29 0 47.5 21.5t18.5 49.5v1180l827 -1227q10 -12 25.5 -21.5t31.5 -9.5q29 0 49.5 20.5t20.5 51.5v1372q0 31 -19.5 52.5t-48.5 21.5q-31 0 -50 -21.5t-19 -54.5v-1177l-824 1224q-23 29 -57 29q-31 0 -53.5 -20.5t-22.5 -51.5v-1368z M397 1723q0 -29 21.5 -48.5t54.5 -19.5l426 -2q33 0 55 19.5t22 48.5q0 31 -21.5 52t-53.5 21l-430 2q-31 0 -52.5 -21.5t-21.5 -51.5z" />
			<glyph unicode="&#xd2;" horiz-adv-x="1415"
				   d="M82 737q0 -166 46 -305t129 -238.5t197.5 -155.5t252.5 -56q137 0 252.5 56t198.5 155.5t129 238.5t46 305t-46 305.5t-129 238.5t-198.5 155.5t-252.5 56.5t-252 -56.5t-198 -155.5t-129 -238.5t-46 -305.5zM240 737q0 145 32.5 262t93 199t146.5 126t195 44 q106 0 193 -44t148.5 -126t94.5 -198.5t33 -262.5q0 -145 -33 -261t-94.5 -198.5t-148.5 -127t-193 -44.5q-109 0 -195 44.5t-146.5 126t-93 198.5t-32.5 262zM485 1827q0 -56 47 -74l295 -116q16 -4 20 -4q33 0 55.5 17t22.5 40q0 29 -13 49.5t-36 28.5l-295 114 q-12 4 -18 5q-33 0 -55.5 -18.5t-22.5 -41.5z" />
			<glyph unicode="&#xd3;" horiz-adv-x="1415"
				   d="M82 737q0 -166 46 -305t129 -238.5t197.5 -155.5t252.5 -56q137 0 252.5 56t198.5 155.5t129 238.5t46 305t-46 305.5t-129 238.5t-198.5 155.5t-252.5 56.5t-252 -56.5t-198 -155.5t-129 -238.5t-46 -305.5zM240 737q0 145 32.5 262t93 199t146.5 126t195 44 q106 0 193 -44t148.5 -126t94.5 -198.5t33 -262.5q0 -145 -33 -261t-94.5 -198.5t-148.5 -127t-193 -44.5q-109 0 -195 44.5t-146.5 126t-93 198.5t-32.5 262zM489 1692q0 -23 24.5 -41t55.5 -18q8 0 20 4l295 116q23 8 35 29t12 47q0 23 -22.5 40.5t-52.5 17.5 q-6 0 -11.5 -1t-11.5 -4l-295 -112q-23 -8 -36 -28.5t-13 -49.5z" />
			<glyph unicode="&#xd4;" horiz-adv-x="1415"
				   d="M82 737q0 -166 46 -305t129 -238.5t197.5 -155.5t252.5 -56q137 0 252.5 56t198.5 155.5t129 238.5t46 305t-46 305.5t-129 238.5t-198.5 155.5t-252.5 56.5t-252 -56.5t-198 -155.5t-129 -238.5t-46 -305.5zM240 737q0 145 32.5 262t93 199t146.5 126t195 44 q106 0 193 -44t148.5 -126t94.5 -198.5t33 -262.5q0 -145 -33 -261t-94.5 -198.5t-148.5 -127t-193 -44.5q-109 0 -195 44.5t-146.5 126t-93 198.5t-32.5 262zM395 1694q0 -25 22.5 -42t55.5 -17q14 0 22 4l211 84l207 -84q12 -6 25 -6q33 0 57.5 18t24.5 45q0 61 -45 78 l-226 84q-37 14 -43 14t-41 -14l-223 -88q-23 -8 -35 -28.5t-12 -47.5z" />
			<glyph unicode="&#xd5;" horiz-adv-x="1415"
				   d="M82 737q0 -166 46 -305t129 -238.5t197.5 -155.5t252.5 -56q137 0 252.5 56t198.5 155.5t129 238.5t46 305t-46 305.5t-129 238.5t-198.5 155.5t-252.5 56.5t-252 -56.5t-198 -155.5t-129 -238.5t-46 -305.5zM240 737q0 145 32.5 262t93 199t146.5 126t195 44 q106 0 193 -44t148.5 -126t94.5 -198.5t33 -262.5q0 -145 -33 -261t-94.5 -198.5t-148.5 -127t-193 -44.5q-109 0 -195 44.5t-146.5 126t-93 198.5t-32.5 262zM416 1723q0 -29 21.5 -48.5t54.5 -19.5l426 -2q33 0 55 19.5t22 48.5q0 31 -21.5 52t-53.5 21l-430 2 q-31 0 -52.5 -21.5t-21.5 -51.5z" />
			<glyph unicode="&#xd6;" horiz-adv-x="1415"
				   d="M82 737q0 -166 46 -305t129 -238.5t197.5 -155.5t252.5 -56q137 0 252.5 56t198.5 155.5t129 238.5t46 305t-46 305.5t-129 238.5t-198.5 155.5t-252.5 56.5t-252 -56.5t-198 -155.5t-129 -238.5t-46 -305.5zM145 1513q0 -37 28 -63.5t67 -26.5q41 0 67.5 27t26.5 63 q0 41 -26.5 70t-65.5 29q-41 0 -70 -29t-27 -70zM240 737q0 145 32.5 262t93 199t146.5 126t195 44q106 0 193 -44t148.5 -126t94.5 -198.5t33 -262.5q0 -145 -33 -261t-94.5 -198.5t-148.5 -127t-193 -44.5q-109 0 -195 44.5t-146.5 126t-93 198.5t-32.5 262zM1081 1513 q0 -37 27 -63.5t68 -26.5q39 0 65.5 28t26.5 69t-22.5 67.5t-51.5 26.5q-47 0 -79 -30t-34 -71z" />
			<glyph unicode="&#xd8;" horiz-adv-x="1415"
				   d="M76 12q0 -47 49 -47q39 0 57 25l127 155q57 -49 103.5 -80.5t90.5 -50t93 -25.5t113 -7q137 0 250.5 56t196.5 156.5t129 240.5t46 306q0 72 -5 128.5t-20.5 110.5t-41 113.5t-66.5 137.5l141 172q6 10 11.5 21.5t5.5 25.5q0 55 -53 55q-33 0 -46 -14l-137 -170 q-61 53 -110 87t-96.5 53.5t-97.5 26.5t-114 7q-135 0 -249.5 -56.5t-196.5 -156.5t-128 -238.5t-46 -302.5q0 -80 6 -139t21.5 -114.5t44 -115t75.5 -136.5l-137 -170q-16 -20 -16 -54zM238 731q0 145 32.5 263t93 200t146.5 126t192 44q51 0 91.5 -6t77 -22.5t75.5 -45 t88 -73.5l-708 -865q-29 59 -45.5 103.5t-26.5 85.5t-13 86t-3 104zM391 248l711 866q23 -61 37 -106t22 -87t11.5 -84t3.5 -98q0 -145 -32 -261t-91.5 -196.5t-145.5 -123.5t-192 -43q-51 0 -90 5t-75 20.5t-74 41t-85 66.5z" />
			<glyph unicode="&#xd9;" horiz-adv-x="1386"
				   d="M141 504q0 -133 36 -221t122 -162q78 -70 180.5 -105.5t212.5 -35.5q111 0 212.5 36.5t180.5 104.5q86 76 121 163t35 220v913q0 29 -20.5 51.5t-49.5 22.5t-48 -22.5t-19 -51.5v-917q0 -104 -25.5 -168t-89.5 -121q-59 -53 -136 -82t-161 -29t-159.5 29t-135.5 82 q-66 57 -91 120.5t-25 168.5v917q0 29 -19.5 51.5t-48.5 22.5t-50.5 -22.5t-21.5 -51.5v-913zM471 1827q0 -56 47 -74l295 -116q16 -4 20 -4q33 0 55.5 17t22.5 40q0 29 -13 49.5t-36 28.5l-295 114q-12 4 -18 5q-33 0 -55.5 -18.5t-22.5 -41.5z" />
			<glyph unicode="&#xda;" horiz-adv-x="1386"
				   d="M141 504q0 -133 36 -221t122 -162q78 -70 180.5 -105.5t212.5 -35.5q111 0 212.5 36.5t180.5 104.5q86 76 121 163t35 220v913q0 29 -20.5 51.5t-49.5 22.5t-48 -22.5t-19 -51.5v-917q0 -104 -25.5 -168t-89.5 -121q-59 -53 -136 -82t-161 -29t-159.5 29t-135.5 82 q-66 57 -91 120.5t-25 168.5v917q0 29 -19.5 51.5t-48.5 22.5t-50.5 -22.5t-21.5 -51.5v-913zM475 1692q0 -23 24.5 -41t55.5 -18q8 0 20 4l295 116q23 8 35 29t12 47q0 23 -22.5 40.5t-52.5 17.5q-6 0 -11.5 -1t-11.5 -4l-295 -112q-23 -8 -36 -28.5t-13 -49.5z" />
			<glyph unicode="&#xdb;" horiz-adv-x="1386"
				   d="M141 504q0 -133 36 -221t122 -162q78 -70 180.5 -105.5t212.5 -35.5q111 0 212.5 36.5t180.5 104.5q86 76 121 163t35 220v913q0 29 -20.5 51.5t-49.5 22.5t-48 -22.5t-19 -51.5v-917q0 -104 -25.5 -168t-89.5 -121q-59 -53 -136 -82t-161 -29t-159.5 29t-135.5 82 q-66 57 -91 120.5t-25 168.5v917q0 29 -19.5 51.5t-48.5 22.5t-50.5 -22.5t-21.5 -51.5v-913zM381 1694q0 -25 22.5 -42t55.5 -17q14 0 22 4l211 84l207 -84q12 -6 25 -6q33 0 57.5 18t24.5 45q0 61 -45 78l-226 84q-37 14 -43 14t-41 -14l-223 -88q-23 -8 -35 -28.5 t-12 -47.5z" />
			<glyph unicode="&#xdc;" horiz-adv-x="1386"
				   d="M141 504q0 -133 36 -221t122 -162q78 -70 180.5 -105.5t212.5 -35.5q111 0 212.5 36.5t180.5 104.5q86 76 121 163t35 220v913q0 29 -20.5 51.5t-49.5 22.5t-48 -22.5t-19 -51.5v-917q0 -104 -25.5 -168t-89.5 -121q-59 -53 -136 -82t-161 -29t-159.5 29t-135.5 82 q-66 57 -91 120.5t-25 168.5v917q0 29 -19.5 51.5t-48.5 22.5t-50.5 -22.5t-21.5 -51.5v-913zM434 1507q0 -41 26.5 -68.5t67.5 -27.5t69 27.5t28 68.5t-29 70t-70 29q-39 0 -65.5 -29t-26.5 -70zM760 1507q0 -41 27.5 -68.5t68.5 -27.5q39 0 66.5 27.5t27.5 68.5t-27.5 70 t-66.5 29q-41 0 -68.5 -29t-27.5 -70z" />
			<glyph unicode="&#xdf;" horiz-adv-x="1134"
				   d="M141 55q0 -29 20.5 -51t51.5 -22q29 0 47.5 22.5t18.5 50.5v1121q0 135 67.5 211.5t183.5 76.5q111 0 175.5 -78.5t64.5 -207.5q0 -98 -41 -168t-108 -90l-48 -15q-16 -4 -26 -20.5t-10 -36.5q0 -18 9 -35.5t25 -21.5q8 -2 21.5 -4.5t34.5 -2.5q117 -4 186.5 -95 t69.5 -243q0 -141 -58.5 -230t-150.5 -89q-10 0 -12 2l-44 2q-35 2 -55 -18.5t-20 -51.5q0 -80 121 -79q78 0 145.5 35.5t117.5 99t78.5 147.5t28.5 182q0 102 -41 203q-18 45 -36.5 77t-45 56.5t-64.5 44.5t-91 43q31 23 52 42.5t36.5 39t27 41t21.5 51.5q10 35 15 71t5 71 q0 90 -27.5 164.5t-76.5 129t-118.5 84t-153.5 29.5q-190 0 -293 -114.5t-103 -325.5v-1098z" />
			<glyph unicode="&#xe0;" horiz-adv-x="1148"
				   d="M82 545q0 -123 35 -225.5t96 -178t147 -117.5t189 -42q53 0 95 8t78 28.5t69.5 55.5t72.5 86v-101q0 -33 21.5 -56t52.5 -23q29 0 49.5 20t20.5 49v991q0 29 -19.5 49.5t-48.5 20.5q-31 0 -52.5 -22.5t-21.5 -51.5v-80q-43 45 -79.5 74t-73.5 46.5t-77 24.5t-91 7 q-100 0 -185.5 -42t-146.5 -118t-96 -178t-35 -225zM233 547q0 205 89 324.5t243 119.5q68 0 128.5 -28.5t101.5 -83.5q23 -29 38 -61t24 -69.5t13 -84t4 -107.5q0 -457 -321 -457q-147 0 -233.5 120t-86.5 327zM352 1372q0 -56 47 -74l295 -116q16 -4 20 -4q33 0 55.5 17 t22.5 40q0 29 -13 49.5t-36 28.5l-295 114q-12 4 -18 5q-33 0 -55.5 -18.5t-22.5 -41.5z" />
			<glyph unicode="&#xe1;" horiz-adv-x="1148"
				   d="M82 545q0 -123 35 -225.5t96 -178t147 -117.5t189 -42q53 0 95 8t78 28.5t69.5 55.5t72.5 86v-101q0 -33 21.5 -56t52.5 -23q29 0 49.5 20t20.5 49v991q0 29 -19.5 49.5t-48.5 20.5q-31 0 -52.5 -22.5t-21.5 -51.5v-80q-43 45 -79.5 74t-73.5 46.5t-77 24.5t-91 7 q-100 0 -185.5 -42t-146.5 -118t-96 -178t-35 -225zM233 547q0 205 89 324.5t243 119.5q68 0 128.5 -28.5t101.5 -83.5q23 -29 38 -61t24 -69.5t13 -84t4 -107.5q0 -457 -321 -457q-147 0 -233.5 120t-86.5 327zM356 1237q0 -23 24.5 -41t55.5 -18q8 0 20 4l295 116 q23 8 35 29t12 47q0 23 -22.5 40.5t-52.5 17.5q-6 0 -11.5 -1t-11.5 -4l-295 -112q-23 -8 -36 -28.5t-13 -49.5z" />
			<glyph unicode="&#xe2;" horiz-adv-x="1148"
				   d="M82 545q0 -123 35 -225.5t96 -178t147 -117.5t189 -42q53 0 95 8t78 28.5t69.5 55.5t72.5 86v-101q0 -33 21.5 -56t52.5 -23q29 0 49.5 20t20.5 49v991q0 29 -19.5 49.5t-48.5 20.5q-31 0 -52.5 -22.5t-21.5 -51.5v-80q-43 45 -79.5 74t-73.5 46.5t-77 24.5t-91 7 q-100 0 -185.5 -42t-146.5 -118t-96 -178t-35 -225zM233 547q0 205 89 324.5t243 119.5q68 0 128.5 -28.5t101.5 -83.5q23 -29 38 -61t24 -69.5t13 -84t4 -107.5q0 -457 -321 -457q-147 0 -233.5 120t-86.5 327zM262 1239q0 -25 22.5 -42t55.5 -17q14 0 22 4l211 84l207 -84 q12 -6 25 -6q33 0 57.5 18t24.5 45q0 61 -45 78l-226 84q-37 14 -43 14t-41 -14l-223 -88q-23 -8 -35 -28.5t-12 -47.5z" />
			<glyph unicode="&#xe3;" horiz-adv-x="1148"
				   d="M82 545q0 -123 35 -225.5t96 -178t147 -117.5t189 -42q53 0 95 8t78 28.5t69.5 55.5t72.5 86v-101q0 -33 21.5 -56t52.5 -23q29 0 49.5 20t20.5 49v991q0 29 -19.5 49.5t-48.5 20.5q-31 0 -52.5 -22.5t-21.5 -51.5v-80q-43 45 -79.5 74t-73.5 46.5t-77 24.5t-91 7 q-100 0 -185.5 -42t-146.5 -118t-96 -178t-35 -225zM233 547q0 205 89 324.5t243 119.5q68 0 128.5 -28.5t101.5 -83.5q23 -29 38 -61t24 -69.5t13 -84t4 -107.5q0 -457 -321 -457q-147 0 -233.5 120t-86.5 327zM283 1268q0 -29 21.5 -48.5t54.5 -19.5l426 -2q33 0 55 19.5 t22 48.5q0 31 -21.5 52t-53.5 21l-430 2q-31 0 -52.5 -21.5t-21.5 -51.5z" />
			<glyph unicode="&#xe4;" horiz-adv-x="1148"
				   d="M82 545q0 -123 35 -225.5t96 -178t147 -117.5t189 -42q53 0 95 8t78 28.5t69.5 55.5t72.5 86v-101q0 -33 21.5 -56t52.5 -23q29 0 49.5 20t20.5 49v991q0 29 -19.5 49.5t-48.5 20.5q-31 0 -52.5 -22.5t-21.5 -51.5v-80q-43 45 -79.5 74t-73.5 46.5t-77 24.5t-91 7 q-100 0 -185.5 -42t-146.5 -118t-96 -178t-35 -225zM233 547q0 205 89 324.5t243 119.5q68 0 128.5 -28.5t101.5 -83.5q23 -29 38 -61t24 -69.5t13 -84t4 -107.5q0 -457 -321 -457q-147 0 -233.5 120t-86.5 327zM299 1331q0 -41 29.5 -69.5t70.5 -28.5t68 29.5t27 70.5 t-28 69t-69 28t-70.5 -29t-27.5 -70zM676 1333q0 -41 26.5 -70.5t67.5 -29.5t70.5 28.5t29.5 69.5t-28.5 70t-69.5 29t-68.5 -28t-27.5 -69z" />
			<glyph unicode="&#xe5;" horiz-adv-x="1148"
				   d="M82 545q0 -123 35 -225.5t96 -178t147 -117.5t189 -42q53 0 95 8t78 28.5t69.5 55.5t72.5 86v-101q0 -33 21.5 -56t52.5 -23q29 0 49.5 20t20.5 49v991q0 29 -19.5 49.5t-48.5 20.5q-31 0 -52.5 -22.5t-21.5 -51.5v-80q-43 45 -79.5 74t-73.5 46.5t-77 24.5t-91 7 q-100 0 -185.5 -42t-146.5 -118t-96 -178t-35 -225zM233 547q0 205 89 324.5t243 119.5q68 0 128.5 -28.5t101.5 -83.5q23 -29 38 -61t24 -69.5t13 -84t4 -107.5q0 -457 -321 -457q-147 0 -233.5 120t-86.5 327zM406 1348q0 -61 43 -105.5t102 -44.5q63 0 108.5 44t45.5 106 q0 63 -44.5 108t-105.5 45q-63 0 -106 -45t-43 -108zM481 1350q0 29 21.5 50t50.5 21q31 0 52.5 -21.5t21.5 -51.5q0 -29 -21.5 -50.5t-52.5 -21.5q-29 0 -50.5 21.5t-21.5 52.5z" />
			<glyph unicode="&#xe6;" horiz-adv-x="1839"
				   d="M82 537q0 -119 35 -220.5t96 -175t145 -115.5t183 -42q82 0 160.5 34.5t123.5 90.5q10 10 19.5 24t21.5 35v-117q0 -33 19.5 -53.5t50.5 -20.5q70 0 70 76v99q45 -51 82.5 -84t77.5 -51.5t85 -25.5t107 -7q102 0 186 30.5t164 96.5q61 47 61 86q0 33 -28 57 q-23 18 -39 18q-12 0 -41 -26q-143 -133 -307 -133q-162 0 -267 120q-23 27 -38 51.5t-25 53.5t-16.5 64.5t-8.5 84.5h684h50q20 2 32 25q8 18 9 51q0 117 -34 215.5t-92.5 171t-138 113.5t-174.5 41q-51 0 -92 -8.5t-79 -26.5t-76.5 -51t-83.5 -82v98q0 33 -19.5 54.5 t-52.5 21.5q-29 0 -48.5 -22.5t-19.5 -53.5v-88q-121 158 -321 158q-100 0 -185.5 -42t-146.5 -118t-95 -180.5t-34 -226.5zM227 512v18q0 100 22.5 183.5t64.5 140.5t100.5 89t132.5 32q154 0 237.5 -109.5t83.5 -308.5q0 -211 -81.5 -325.5t-233.5 -114.5 q-72 0 -131.5 28.5t-102.5 79.5t-67.5 124t-24.5 163zM1001 602q0 43 3.5 76t10.5 59.5t17.5 50t26.5 48.5q43 66 109.5 101.5t144.5 35.5q84 0 149.5 -39t106.5 -111q12 -23 21 -43t16.5 -45.5t13.5 -57.5t12 -75h-631z" />
			<glyph unicode="&#xe7;" horiz-adv-x="905"
				   d="M82 545q0 -125 35 -228.5t98.5 -177t153.5 -114.5t198 -41q55 0 104.5 10t86.5 27.5t58.5 41t21.5 50.5q0 29 -20.5 48t-51.5 19q-4 0 -6 -2t-6 -2l-33 -14l-39 -17l-39 -16q-16 -8 -34.5 -10t-39.5 -2q-72 0 -133 32.5t-105 91t-68.5 138.5t-24.5 176t24.5 175 t68.5 134.5t105.5 86t134.5 30.5q31 0 67 -9t69 -26l30 -16q14 -8 35 -8q29 0 50.5 22.5t21.5 50.5q0 25 -22.5 45.5t-59.5 36t-86 24.5t-103 9q-109 0 -198.5 -42t-155 -116.5t-101.5 -179t-36 -227.5zM362 -215q0 -49 46 -49q20 0 36.5 8t26.5 20l154 197h-127l-117 -125 q-18 -23 -19 -51z" />
			<glyph unicode="&#xe8;" horiz-adv-x="1089"
				   d="M82 549q0 -127 36 -231.5t101.5 -180.5t157.5 -116.5t205 -40.5q186 0 336 110q49 35 68.5 61.5t19.5 55.5t-20.5 49t-49.5 20t-55 -24l-56 -49q-102 -92 -243 -92q-96 0 -174 47t-113 125q-16 41 -30.5 91t-24.5 111h678q61 0 81.5 16.5t20.5 65.5q0 37 -6 80t-18.5 88 t-28 87t-33.5 73q-59 100 -157.5 156.5t-219.5 56.5q-102 0 -189 -42t-150.5 -118t-99.5 -178t-36 -221zM238 602q6 47 11 81t13 60.5t18.5 49t26.5 49.5q41 68 106.5 104.5t141.5 36.5q84 0 149.5 -41t106.5 -121q25 -47 36 -91t23 -128h-632zM324 1372q0 -56 47 -74 l295 -116q16 -4 20 -4q33 0 55.5 17t22.5 40q0 29 -13 49.5t-36 28.5l-295 114q-12 4 -18 5q-33 0 -55.5 -18.5t-22.5 -41.5z" />
			<glyph unicode="&#xe9;" horiz-adv-x="1089"
				   d="M82 549q0 -127 36 -231.5t101.5 -180.5t157.5 -116.5t205 -40.5q186 0 336 110q49 35 68.5 61.5t19.5 55.5t-20.5 49t-49.5 20t-55 -24l-56 -49q-102 -92 -243 -92q-96 0 -174 47t-113 125q-16 41 -30.5 91t-24.5 111h678q61 0 81.5 16.5t20.5 65.5q0 37 -6 80t-18.5 88 t-28 87t-33.5 73q-59 100 -157.5 156.5t-219.5 56.5q-102 0 -189 -42t-150.5 -118t-99.5 -178t-36 -221zM238 602q6 47 11 81t13 60.5t18.5 49t26.5 49.5q41 68 106.5 104.5t141.5 36.5q84 0 149.5 -41t106.5 -121q25 -47 36 -91t23 -128h-632zM326 1237q0 -23 24.5 -41 t55.5 -18q8 0 20 4l295 116q23 8 35 29t12 47q0 23 -22.5 40.5t-52.5 17.5q-6 0 -11.5 -1t-11.5 -4l-295 -112q-23 -8 -36 -28.5t-13 -49.5z" />
			<glyph unicode="&#xea;" horiz-adv-x="1089"
				   d="M82 549q0 -127 36 -231.5t101.5 -180.5t157.5 -116.5t205 -40.5q186 0 336 110q49 35 68.5 61.5t19.5 55.5t-20.5 49t-49.5 20t-55 -24l-56 -49q-102 -92 -243 -92q-96 0 -174 47t-113 125q-16 41 -30.5 91t-24.5 111h678q61 0 81.5 16.5t20.5 65.5q0 37 -6 80t-18.5 88 t-28 87t-33.5 73q-59 100 -157.5 156.5t-219.5 56.5q-102 0 -189 -42t-150.5 -118t-99.5 -178t-36 -221zM231 1239q0 -25 22.5 -42t55.5 -17q14 0 22 4l211 84l207 -84q12 -6 25 -6q33 0 57.5 18t24.5 45q0 61 -45 78l-226 84q-37 14 -43 14t-41 -14l-223 -88 q-23 -8 -35 -28.5t-12 -47.5zM238 602q6 47 11 81t13 60.5t18.5 49t26.5 49.5q41 68 106.5 104.5t141.5 36.5q84 0 149.5 -41t106.5 -121q25 -47 36 -91t23 -128h-632z" />
			<glyph unicode="&#xeb;" horiz-adv-x="1089"
				   d="M82 549q0 -127 36 -231.5t101.5 -180.5t157.5 -116.5t205 -40.5q186 0 336 110q49 35 68.5 61.5t19.5 55.5t-20.5 49t-49.5 20t-55 -24l-56 -49q-102 -92 -243 -92q-96 0 -174 47t-113 125q-16 41 -30.5 91t-24.5 111h678q61 0 81.5 16.5t20.5 65.5q0 37 -6 80t-18.5 88 t-28 87t-33.5 73q-59 100 -157.5 156.5t-219.5 56.5q-102 0 -189 -42t-150.5 -118t-99.5 -178t-36 -221zM238 602q6 47 11 81t13 60.5t18.5 49t26.5 49.5q41 68 106.5 104.5t141.5 36.5q84 0 149.5 -41t106.5 -121q25 -47 36 -91t23 -128h-632zM258 1278q0 -39 27.5 -67.5 t68.5 -28.5t68.5 28.5t27.5 67.5q0 41 -27.5 68.5t-66.5 27.5q-41 0 -69.5 -27.5t-28.5 -68.5zM636 1278q0 -41 27 -68.5t68 -27.5t69.5 27.5t28.5 66.5q0 41 -29.5 69.5t-70.5 28.5q-39 0 -66 -27.5t-27 -68.5z" />
			<glyph unicode="&#xec;" horiz-adv-x="378"
				   d="M119 53q0 -31 21.5 -51t49.5 -20q29 0 48.5 20t19.5 51v987q0 29 -18.5 49.5t-46.5 20.5q-29 0 -51.5 -20.5t-22.5 -49.5v-987zM119 1372q0 -56 47 -74l295 -116q16 -4 20 -4q33 0 55.5 17t22.5 40q0 29 -13 49.5t-36 28.5l-295 114q-12 4 -18 5q-33 0 -55.5 -18.5 t-22.5 -41.5z" />
			<glyph unicode="&#xed;" horiz-adv-x="378"
				   d="M119 53q0 -31 21.5 -51t49.5 -20q29 0 48.5 20t19.5 51v987q0 29 -18.5 49.5t-46.5 20.5q-29 0 -51.5 -20.5t-22.5 -49.5v-987zM119 1237q0 -23 24.5 -41t55.5 -18q8 0 20 4l295 116q23 8 35 29t12 47q0 23 -22.5 40.5t-52.5 17.5q-6 0 -11.5 -1t-11.5 -4l-295 -112 q-23 -8 -36 -28.5t-13 -49.5z" />
			<glyph unicode="&#xee;" horiz-adv-x="378"
				   d="M119 53q0 -31 21.5 -51t49.5 -20q29 0 48.5 20t19.5 51v987q0 29 -18.5 49.5t-46.5 20.5q-29 0 -51.5 -20.5t-22.5 -49.5v-987zM119 1239q0 -25 22.5 -42t55.5 -17q14 0 22 4l211 84l207 -84q12 -6 25 -6q33 0 57.5 18t24.5 45q0 61 -45 78l-226 84q-37 14 -43 14 t-41 -14l-223 -88q-23 -8 -35 -28.5t-12 -47.5z" />
			<glyph unicode="&#xef;" horiz-adv-x="378"
				   d="M119 53q0 -31 21.5 -51t49.5 -20q29 0 48.5 20t19.5 51v987q0 29 -18.5 49.5t-46.5 20.5q-29 0 -51.5 -20.5t-22.5 -49.5v-987zM119 1278q0 -39 27.5 -67.5t68.5 -28.5t68.5 28.5t27.5 67.5q0 41 -27.5 68.5t-66.5 27.5q-41 0 -69.5 -27.5t-28.5 -68.5zM497 1278 q0 -41 27 -68.5t68 -27.5t69.5 27.5t28.5 66.5q0 41 -29.5 69.5t-70.5 28.5q-39 0 -66 -27.5t-27 -68.5z" />
			<glyph unicode="&#xf1;" horiz-adv-x="1112"
				   d="M141 47q0 -29 21.5 -48t52.5 -19q27 0 46.5 19t19.5 48v655q0 57 22.5 107.5t60 88.5t90 59.5t111.5 21.5q55 0 103.5 -22.5t84 -60.5t56 -89t20.5 -109v-651q0 -29 20.5 -49.5t49.5 -20.5t50.5 20.5t21.5 51.5v637q0 106 -24.5 174t-82.5 127q-57 57 -133 89t-156 32 q-88 0 -169 -43q-41 -20 -64.5 -42t-58.5 -67v82q0 29 -19.5 51.5t-48.5 22.5q-31 0 -52.5 -20.5t-21.5 -51.5v-993zM264 1268q0 -29 21.5 -48.5t54.5 -19.5l426 -2q33 0 55 19.5t22 48.5q0 31 -21.5 52t-53.5 21l-430 2q-31 0 -52.5 -21.5t-21.5 -51.5z" />
			<glyph unicode="&#xf2;" horiz-adv-x="1103"
				   d="M82 545q0 -121 36 -224.5t98.5 -179t148.5 -118.5t188 -43q100 0 186 43t148.5 118.5t98.5 179t36 224.5t-36 224t-98.5 179t-148.5 119t-186 43q-102 0 -188 -43t-148.5 -119t-98.5 -179t-36 -224zM236 545q0 98 22.5 180t64.5 139.5t100 89t130 31.5q70 0 129 -31.5 t100 -89t64.5 -139.5t23.5 -180t-23.5 -180t-64.5 -139.5t-100 -89.5t-129 -32q-72 0 -130 32t-100 89.5t-64.5 139t-22.5 180.5zM330 1372q0 -56 47 -74l295 -116q16 -4 20 -4q33 0 55.5 17t22.5 40q0 29 -13 49.5t-36 28.5l-295 114q-12 4 -18 5q-33 0 -55.5 -18.5 t-22.5 -41.5z" />
			<glyph unicode="&#xf3;" horiz-adv-x="1103"
				   d="M82 545q0 -121 36 -224.5t98.5 -179t148.5 -118.5t188 -43q100 0 186 43t148.5 118.5t98.5 179t36 224.5t-36 224t-98.5 179t-148.5 119t-186 43q-102 0 -188 -43t-148.5 -119t-98.5 -179t-36 -224zM236 545q0 98 22.5 180t64.5 139.5t100 89t130 31.5q70 0 129 -31.5 t100 -89t64.5 -139.5t23.5 -180t-23.5 -180t-64.5 -139.5t-100 -89.5t-129 -32q-72 0 -130 32t-100 89.5t-64.5 139t-22.5 180.5zM334 1237q0 -23 24.5 -41t55.5 -18q8 0 20 4l295 116q23 8 35 29t12 47q0 23 -22.5 40.5t-52.5 17.5q-6 0 -11.5 -1t-11.5 -4l-295 -112 q-23 -8 -36 -28.5t-13 -49.5z" />
			<glyph unicode="&#xf4;" horiz-adv-x="1103"
				   d="M82 545q0 -121 36 -224.5t98.5 -179t148.5 -118.5t188 -43q100 0 186 43t148.5 118.5t98.5 179t36 224.5t-36 224t-98.5 179t-148.5 119t-186 43q-102 0 -188 -43t-148.5 -119t-98.5 -179t-36 -224zM236 545q0 98 22.5 180t64.5 139.5t100 89t130 31.5q70 0 129 -31.5 t100 -89t64.5 -139.5t23.5 -180t-23.5 -180t-64.5 -139.5t-100 -89.5t-129 -32q-72 0 -130 32t-100 89.5t-64.5 139t-22.5 180.5zM240 1239q0 -25 22.5 -42t55.5 -17q14 0 22 4l211 84l207 -84q12 -6 25 -6q33 0 57.5 18t24.5 45q0 61 -45 78l-226 84q-37 14 -43 14t-41 -14 l-223 -88q-23 -8 -35 -28.5t-12 -47.5z" />
			<glyph unicode="&#xf5;" horiz-adv-x="1103"
				   d="M82 545q0 -121 36 -224.5t98.5 -179t148.5 -118.5t188 -43q100 0 186 43t148.5 118.5t98.5 179t36 224.5t-36 224t-98.5 179t-148.5 119t-186 43q-102 0 -188 -43t-148.5 -119t-98.5 -179t-36 -224zM236 545q0 98 22.5 180t64.5 139.5t100 89t130 31.5q70 0 129 -31.5 t100 -89t64.5 -139.5t23.5 -180t-23.5 -180t-64.5 -139.5t-100 -89.5t-129 -32q-72 0 -130 32t-100 89.5t-64.5 139t-22.5 180.5zM260 1268q0 -29 21.5 -48.5t54.5 -19.5l426 -2q33 0 55 19.5t22 48.5q0 31 -21.5 52t-53.5 21l-430 2q-31 0 -52.5 -21.5t-21.5 -51.5z" />
			<glyph unicode="&#xf6;" horiz-adv-x="1103"
				   d="M82 545q0 -121 36 -224.5t98.5 -179t148.5 -118.5t188 -43q100 0 186 43t148.5 118.5t98.5 179t36 224.5t-36 224t-98.5 179t-148.5 119t-186 43q-102 0 -188 -43t-148.5 -119t-98.5 -179t-36 -224zM236 545q0 98 22.5 180t64.5 139.5t100 89t130 31.5q70 0 129 -31.5 t100 -89t64.5 -139.5t23.5 -180t-23.5 -180t-64.5 -139.5t-100 -89.5t-129 -32q-72 0 -130 32t-100 89.5t-64.5 139t-22.5 180.5zM270 1343q0 -41 27 -67.5t68 -26.5t68.5 27t27.5 67q0 41 -27.5 69t-68.5 28t-68 -28t-27 -69zM647 1343q0 -41 26.5 -67.5t65.5 -26.5 q41 0 70 27t29 65q0 41 -29 70t-70 29q-39 0 -65.5 -28t-26.5 -69z" />
			<glyph unicode="&#xf7;" horiz-adv-x="1216"
				   d="M88 414h948v139h-948v-139zM446 207q0 -45 33 -82q35 -35 84 -35t80 35q35 33 35 82q0 51 -33 84t-82 33q-45 0 -84 -35q-33 -33 -33 -82zM446 758q0 -49 33 -82q35 -35 84 -35t80 35q35 33 35 82q0 47 -35 82q-31 35 -80 34q-49 -3 -84 -34q-33 -33 -33 -82z" />
			<glyph unicode="&#xf8;" horiz-adv-x="1101"
				   d="M72 -4q0 -49 47 -49q37 0 53 22l98 123q39 -35 71 -56.5t63.5 -33.5t66.5 -17t82 -5q100 0 186 43t148.5 117.5t97.5 178t35 226.5q0 51 -4 92t-16.5 81t-34 86t-54.5 105l115 146q14 18 14 45q0 51 -53 51q-35 0 -53 -21l-94 -122q-47 31 -83 50t-68 31.5t-65.5 16.5 t-72.5 4q-100 0 -186 -43t-148.5 -119t-98.5 -179t-36 -226q0 -49 5 -89t16.5 -81t32 -88t50.5 -109l-96 -121q-18 -25 -18 -59zM236 539q0 205 86 325.5t231 120.5q63 0 104 -18.5t97 -69.5l-471 -594q-14 39 -23.5 67.5t-14.5 54.5t-7 52.5t-2 61.5zM348 190l471 601 q14 -39 23.5 -69t15.5 -56.5t8 -55t2 -65.5q0 -98 -23.5 -179t-65.5 -137.5t-100 -88t-130 -31.5q-33 0 -58.5 3t-48 12t-45 25.5t-49.5 40.5z" />
			<glyph unicode="&#xf9;" horiz-adv-x="1118"
				   d="M141 401q0 -59 5.5 -104t17.5 -81t32.5 -65.5t49.5 -56.5q119 -113 315 -112q195 0 311 112q31 29 50.5 58.5t32 65.5t17.5 80t5 103v635q0 29 -21.5 51.5t-52.5 22.5q-27 0 -46 -22.5t-19 -51.5v-637q0 -84 -16.5 -134t-55.5 -85t-92 -54.5t-113 -19.5 q-61 0 -117.5 19.5t-91.5 54.5q-39 37 -55 87t-16 132v637q0 29 -18.5 51.5t-47.5 22.5q-31 0 -52.5 -22.5t-21.5 -51.5v-635zM338 1372q0 -56 47 -74l295 -116q16 -4 20 -4q33 0 55.5 17t22.5 40q0 29 -13 49.5t-36 28.5l-295 114q-12 4 -18 5q-33 0 -55.5 -18.5 t-22.5 -41.5z" />
			<glyph unicode="&#xfa;" horiz-adv-x="1118"
				   d="M141 401q0 -59 5.5 -104t17.5 -81t32.5 -65.5t49.5 -56.5q119 -113 315 -112q195 0 311 112q31 29 50.5 58.5t32 65.5t17.5 80t5 103v635q0 29 -21.5 51.5t-52.5 22.5q-27 0 -46 -22.5t-19 -51.5v-637q0 -84 -16.5 -134t-55.5 -85t-92 -54.5t-113 -19.5 q-61 0 -117.5 19.5t-91.5 54.5q-39 37 -55 87t-16 132v637q0 29 -18.5 51.5t-47.5 22.5q-31 0 -52.5 -22.5t-21.5 -51.5v-635zM340 1237q0 -23 24.5 -41t55.5 -18q8 0 20 4l295 116q23 8 35 29t12 47q0 23 -22.5 40.5t-52.5 17.5q-6 0 -11.5 -1t-11.5 -4l-295 -112 q-23 -8 -36 -28.5t-13 -49.5z" />
			<glyph unicode="&#xfb;" horiz-adv-x="1118"
				   d="M141 401q0 -59 5.5 -104t17.5 -81t32.5 -65.5t49.5 -56.5q119 -113 315 -112q195 0 311 112q31 29 50.5 58.5t32 65.5t17.5 80t5 103v635q0 29 -21.5 51.5t-52.5 22.5q-27 0 -46 -22.5t-19 -51.5v-637q0 -84 -16.5 -134t-55.5 -85t-92 -54.5t-113 -19.5 q-61 0 -117.5 19.5t-91.5 54.5q-39 37 -55 87t-16 132v637q0 29 -18.5 51.5t-47.5 22.5q-31 0 -52.5 -22.5t-21.5 -51.5v-635zM246 1239q0 -25 22.5 -42t55.5 -17q14 0 22 4l211 84l207 -84q12 -6 25 -6q33 0 57.5 18t24.5 45q0 61 -45 78l-226 84q-37 14 -43 14t-41 -14 l-223 -88q-23 -8 -35 -28.5t-12 -47.5z" />
			<glyph unicode="&#xfc;" horiz-adv-x="1118"
				   d="M141 401q0 -59 5.5 -104t17.5 -81t32.5 -65.5t49.5 -56.5q119 -113 315 -112q195 0 311 112q31 29 50.5 58.5t32 65.5t17.5 80t5 103v635q0 29 -21.5 51.5t-52.5 22.5q-27 0 -46 -22.5t-19 -51.5v-637q0 -84 -16.5 -134t-55.5 -85t-92 -54.5t-113 -19.5 q-61 0 -117.5 19.5t-91.5 54.5q-39 37 -55 87t-16 132v637q0 29 -18.5 51.5t-47.5 22.5q-31 0 -52.5 -22.5t-21.5 -51.5v-635zM276 1343q0 -41 29 -67.5t70 -26.5q39 0 65.5 28t26.5 66q0 41 -26.5 70t-65.5 29q-41 0 -70 -29t-29 -70zM651 1343q0 -41 27 -67.5t67 -26.5 q41 0 70 28t29 66q0 41 -29 70t-70 29t-67.5 -29t-26.5 -70z" />
			<glyph unicode="&#xff;" horiz-adv-x="866"
				   d="M20 1038q0 -10 5 -22l335 -993l-137 -377q-6 -12 -6 -29q0 -27 21.5 -45t50.5 -18q27 0 43 14t28 51l471 1399q4 8 5 22q0 31 -19.5 50.5t-50.5 19.5q-51 0 -72 -61l-260 -824l-274 834q-8 23 -27.5 37t-42.5 14q-29 0 -49.5 -21.5t-20.5 -50.5zM148 1278 q0 -39 27.5 -67.5t68.5 -28.5t68.5 28.5t27.5 67.5q0 41 -27.5 68.5t-66.5 27.5q-41 0 -69.5 -27.5t-28.5 -68.5zM526 1278q0 -41 27 -68.5t68 -27.5t69.5 27.5t28.5 66.5q0 41 -29.5 69.5t-70.5 28.5q-39 0 -66 -27.5t-27 -68.5z" />
			<glyph unicode="&#x152;" horiz-adv-x="1910"
				   d="M82 731q0 -164 45 -301t127 -236.5t193.5 -154.5t246.5 -55q129 0 242 54t180 146q8 10 18.5 28.5t24.5 41.5v-182q0 -33 18.5 -52.5t53.5 -19.5h528q29 0 49.5 17.5t20.5 41.5q0 29 -18.5 49.5t-47.5 20.5h-465v543h422q29 0 47.5 17.5t18.5 43.5q0 29 -18.5 48.5 t-45.5 19.5h-422v545h439q29 0 48 18t19 45q0 29 -19.5 48.5t-47.5 19.5h-502q-31 0 -52.5 -21.5t-21.5 -52.5v-168q-31 47 -55.5 80t-51 56.5t-57 41t-71.5 35.5q-55 23 -112.5 36t-117.5 13q-137 0 -250.5 -56.5t-194.5 -157.5t-126 -242.5t-45 -309.5zM233 731 q0 141 33 258t94.5 200t148.5 128t193 45t192.5 -45t147 -127t93 -200t32.5 -261q0 -141 -32.5 -255t-93 -192.5t-147.5 -121.5t-194 -43q-106 0 -192 44t-147.5 125t-94.5 193.5t-33 251.5z" />
			<glyph unicode="&#x153;" horiz-adv-x="1863"
				   d="M82 543q0 -121 35 -222.5t96 -175t145 -115.5t185 -42q127 0 224 58t177 187q25 -43 45.5 -72.5t42 -52t48 -39t61.5 -34.5q100 -53 217 -53q102 0 203.5 39.5t179.5 111.5q41 39 41 76q0 29 -19.5 48t-48.5 19q-16 0 -29.5 -6t-35.5 -28q-129 -123 -287 -123 q-172 0 -270 139q-18 27 -30.5 50.5t-20 50t-12.5 59.5t-9 76h674q61 0 82.5 16t21.5 63q0 119 -33.5 217.5t-95 170t-145.5 111.5t-185 40q-106 0 -198 -47t-150 -131q-10 -16 -22.5 -36.5t-28.5 -43.5q-25 43 -45.5 73.5t-42 54.5t-46 41t-56.5 34q-96 51 -201 51 q-102 0 -187.5 -42t-147.5 -118t-97 -179t-35 -226zM233 545q0 207 85.5 326.5t230.5 119.5q150 0 233.5 -113.5t83.5 -320.5q0 -217 -83 -335t-232 -118q-72 0 -131.5 32t-100 89.5t-63.5 138t-23 181.5zM1020 606q6 43 11 73t11.5 53.5t14.5 43.5t20 45q37 76 103.5 117 t152.5 41q166 0 254 -150q29 -47 41 -92t19 -131h-627z" />
			<glyph unicode="&#x178;" horiz-adv-x="1007"
				   d="M10 1427q0 -10 4 -19t9 -17l409 -699v-637q0 -35 19.5 -54t52.5 -19t52 19t19 54v637l412 699q8 14 8 36q0 29 -17 46.5t-48 17.5q-43 0 -64 -39l-362 -612l-361 612q-10 16 -27.5 27.5t-37.5 11.5q-29 0 -48.5 -17.5t-19.5 -46.5zM217 1733q0 -39 27.5 -67.5t68.5 -28.5 t68.5 28.5t27.5 67.5q0 41 -27.5 68.5t-66.5 27.5q-41 0 -69.5 -27.5t-28.5 -68.5zM595 1733q0 -41 27 -68.5t68 -27.5t69.5 27.5t28.5 66.5q0 41 -29.5 69.5t-70.5 28.5q-39 0 -66 -27.5t-27 -68.5z" />
			<glyph unicode="&#x2c6;" horiz-adv-x="620"
				   d="M-2 1239q0 -25 22.5 -42t55.5 -17q14 0 22 4l211 84l207 -84q12 -6 25 -6q33 0 57.5 18t24.5 45q0 61 -45 78l-226 84q-37 14 -43 14t-41 -14l-223 -88q-23 -8 -35 -28.5t-12 -47.5z" />
			<glyph unicode="&#x2dc;" horiz-adv-x="573"
				   d="M-4 1268q0 -29 21.5 -48.5t54.5 -19.5l426 -2q33 0 55 19.5t22 48.5q0 31 -21.5 52t-53.5 21l-430 2q-31 0 -52.5 -21.5t-21.5 -51.5z" />
			<glyph unicode="&#x2000;" horiz-adv-x="943" />
			<glyph unicode="&#x2001;" horiz-adv-x="1887" />
			<glyph unicode="&#x2002;" horiz-adv-x="943" />
			<glyph unicode="&#x2003;" horiz-adv-x="1887" />
			<glyph unicode="&#x2004;" horiz-adv-x="629" />
			<glyph unicode="&#x2005;" horiz-adv-x="471" />
			<glyph unicode="&#x2006;" horiz-adv-x="314" />
			<glyph unicode="&#x2007;" horiz-adv-x="314" />
			<glyph unicode="&#x2008;" horiz-adv-x="235" />
			<glyph unicode="&#x2009;" horiz-adv-x="377" />
			<glyph unicode="&#x200a;" horiz-adv-x="104" />
			<glyph unicode="&#x2010;" horiz-adv-x="710"
				   d="M82 537q0 -29 17 -47.5t40 -18.5h424q27 0 46.5 18.5t19.5 47.5t-19.5 47t-46.5 18h-424q-23 0 -40 -18.5t-17 -46.5z" />
			<glyph unicode="&#x2011;" horiz-adv-x="710"
				   d="M82 537q0 -29 17 -47.5t40 -18.5h424q27 0 46.5 18.5t19.5 47.5t-19.5 47t-46.5 18h-424q-23 0 -40 -18.5t-17 -46.5z" />
			<glyph unicode="&#x2012;" horiz-adv-x="710"
				   d="M82 537q0 -29 17 -47.5t40 -18.5h424q27 0 46.5 18.5t19.5 47.5t-19.5 47t-46.5 18h-424q-23 0 -40 -18.5t-17 -46.5z" />
			<glyph unicode="&#x2013;"
				   d="M66 688q0 -23 14.5 -38t34.5 -15h864q20 0 34.5 15.5t14.5 37.5q0 20 -14.5 34.5t-34.5 14.5h-862q-23 0 -37 -14t-14 -35z" />
			<glyph unicode="&#x2014;" horiz-adv-x="2039" d="M61 684h1917v107h-1917v-107z" />
			<glyph unicode="&#x2018;" horiz-adv-x="360"
				   d="M20 1171q0 -35 17.5 -58t44.5 -23q25 0 45.5 12t28.5 28l123 269q6 14 6 24q0 35 -18.5 57.5t-45.5 22.5q-55 0 -76 -41l-120 -268q-4 -10 -5 -23z" />
			<glyph unicode="&#x2019;" horiz-adv-x="360"
				   d="M20 1171q0 -35 17.5 -58t44.5 -23q25 0 45.5 12t28.5 28l123 269q6 14 6 24q0 35 -18.5 57.5t-45.5 22.5q-55 0 -76 -41l-120 -268q-4 -10 -5 -23z" />
			<glyph unicode="&#x201a;" horiz-adv-x="362"
				   d="M20 -186q0 -35 18.5 -58.5t43.5 -23.5t44.5 12.5t29.5 30.5l125 268q2 6 3 11t1 12q0 35 -18.5 57t-45.5 22q-25 0 -45 -10t-31 -31l-120 -268q-4 -16 -5 -22z" />
			<glyph unicode="&#x201c;" horiz-adv-x="632"
				   d="M33 1171q0 -35 17.5 -58t43.5 -23q27 0 46.5 12t27.5 28l125 269q6 14 6 24q0 35 -18.5 57.5t-44.5 22.5q-59 0 -76 -41l-123 -268q-4 -10 -4 -23zM291 1171q0 -35 18.5 -58t44.5 -23q25 0 45.5 12t28.5 28l123 269q6 14 6 24q0 35 -18.5 57.5t-44.5 22.5q-55 0 -76 -41 l-121 -268q-6 -16 -6 -23z" />
			<glyph unicode="&#x201d;" horiz-adv-x="632"
				   d="M33 1171q0 -35 17.5 -58t43.5 -23q27 0 46.5 12t27.5 28l125 269q6 14 6 24q0 35 -18.5 57.5t-44.5 22.5q-59 0 -76 -41l-123 -268q-4 -10 -4 -23zM291 1171q0 -35 18.5 -58t44.5 -23q25 0 45.5 12t28.5 28l123 269q6 14 6 24q0 35 -18.5 57.5t-44.5 22.5q-55 0 -76 -41 l-121 -268q-6 -16 -6 -23z" />
			<glyph unicode="&#x201e;" horiz-adv-x="620"
				   d="M20 -186q0 -35 18.5 -58.5t43.5 -23.5t44.5 12.5t29.5 30.5l125 268q2 6 3 11t1 12q0 35 -18.5 57t-45.5 22q-25 0 -45 -10t-31 -31l-120 -268q-4 -16 -5 -22zM279 -186q0 -35 17 -58.5t44 -23.5t45.5 12.5t28.5 30.5l127 268q2 6 3 11t1 12q0 35 -18.5 57t-45.5 22 q-57 0 -75 -41l-123 -268q-4 -16 -4 -22z" />
			<glyph unicode="&#x2022;" horiz-adv-x="425"
				   d="M121 535q0 -39 26.5 -66t65.5 -27t65.5 26t26.5 60q0 41 -26.5 69t-67.5 28q-37 0 -63.5 -26.5t-26.5 -63.5z" />
			<glyph unicode="&#x2026;" horiz-adv-x="2039"
				   d="M258 82q0 -41 28.5 -69.5t69.5 -28.5t70 28.5t29 69.5t-29 69.5t-70 28.5t-69.5 -28.5t-28.5 -69.5zM940 82q0 -41 28.5 -69.5t69.5 -28.5t70 28.5t29 69.5t-29 69.5t-70 28.5t-69.5 -28.5t-28.5 -69.5zM1608 82q0 -41 28.5 -69.5t69.5 -28.5t69.5 28.5t28.5 69.5 t-28.5 69.5t-69.5 28.5t-69.5 -28.5t-28.5 -69.5z" />
			<glyph unicode="&#x202f;" horiz-adv-x="377" />
			<glyph unicode="&#x2039;" horiz-adv-x="491"
				   d="M82 547q0 -8 29 -62l170 -305q12 -23 30.5 -36t34.5 -13q25 0 44.5 18.5t19.5 40.5q0 18 -19 48l-182 307l184 305q14 25 15 47q0 59 -58 59q-20 0 -38.5 -12t-28.5 -31l-183 -319q-18 -35 -18 -47z" />
			<glyph unicode="&#x203a;" horiz-adv-x="491"
				   d="M82 897q0 -23 18 -49l183 -307l-185 -305q-14 -25 -14 -48q0 -59 57 -59q18 0 38 11.5t30 29.5l180 322q20 37 21 47q0 8 -31 61l-168 305q-12 23 -31.5 36t-36.5 13q-23 0 -42 -17t-19 -40z" />
			<glyph unicode="&#x205f;" horiz-adv-x="471" />
			<glyph unicode="&#x20ac;" horiz-adv-x="1423"
				   d="M82 645q0 -23 16 -38t39 -15h117q18 -139 71.5 -252t136.5 -192.5t193.5 -123.5t239.5 -44q115 0 219.5 31.5t177.5 90.5q49 37 49 80q0 31 -19 50.5t-48 19.5q-12 0 -26.5 -5t-30.5 -22q-55 -41 -90 -60.5t-85 -33.5q-61 -20 -143 -20q-98 0 -181 33.5t-147.5 96 t-107.5 151.5t-60 200h584q23 0 40 16.5t17 38.5q0 23 -17 38t-42 15h-592v35v43h678q23 0 38 17.5t15 40.5t-16 38t-39 15h-663q18 109 59 197t102.5 150t139 96t167.5 34q61 0 125 -19.5t113 -54.5q10 -8 25.5 -19t31.5 -28q23 -23 38.5 -31t31.5 -8q27 0 47.5 20.5 t20.5 49.5q0 70 -123 141q-133 80 -307 80q-123 0 -228.5 -43t-185.5 -123t-133.5 -192.5t-73.5 -249.5h-117q-25 0 -41 -15.5t-16 -37.5q0 -23 16.5 -40.5t38.5 -17.5h111q-2 -12 -2 -26v-25v-27h-107q-23 0 -40 -16t-17 -39z" />
			<glyph unicode="&#x2122;" horiz-adv-x="1634"
				   d="M109 1382l167 2v-647h103v647l170 -2v93h-440v-93zM524 737h105l78 445l4 26l2 9q4 33 -2 65q4 -14 9 -30.5t9 -32.5l6 -21l6 -12l211 -469h23l211 469l4 8l8 25l10 34l9 29q-6 -33 -3 -65l3 -9l4 -26l77 -445h105l-148 762h-32l-230 -504l-10 -24l-6 -15 q-8 -16 -10 -34.5t-4 -36.5q0 39 -13 69l-4 11l-12 30l-229 504h-33z" />
			<glyph unicode="&#x25fc;" horiz-adv-x="1116" d="M0 0v1116h1116v-1116h-1116z" />
			<glyph unicode="&#xfb01;"
				   d="M188 166q0 -53 56 -53q27 0 35 14l268 266l264 -262q12 -14 41 -14q51 0 51 51q0 25 -12 41l-264 260l264 266q12 12 12 39q0 51 -51 51q-25 0 -39 -14l-264 -262l-264 264q-12 12 -41 12q-51 0 -51 -51q0 -25 14 -37l264 -264l-268 -270q-14 -14 -15 -37z" />
			<glyph unicode="&#xfb02;" horiz-adv-x="708"
				   d="M55 1411q0 -29 18.5 -46t43.5 -17h207v-1291q0 -31 21.5 -53t51.5 -22q29 0 48.5 23.5t19.5 53.5v1338q0 35 -19.5 57.5t-48.5 22.5h-276q-29 0 -47.5 -19.5t-18.5 -46.5z" />
			</font>
</defs>
</svg>
